<?xml version="1.0" encoding="utf-8"?>
<!-- Generator: Adobe Illustrator 18.0.0, SVG Export Plug-In . SVG Version: 6.00 Build 0)  -->
<!DOCTYPE svg PUBLIC "-//W3C//DTD SVG 1.1//EN" "http://www.w3.org/Graphics/SVG/1.1/DTD/svg11.dtd">
<svg version="1.1" id="Layer_1" xmlns="http://www.w3.org/2000/svg" xmlns:xlink="http://www.w3.org/1999/xlink" x="0px" y="0px"
	 viewBox="0 0 1000 1000" enable-background="new 0 0 1000 1000" xml:space="preserve">
<path fill="#F2F2F2" d="M680.4,542.7l8.6-1.5c0.8-0.1,1.7-0.3,2.5-0.5c-33.1-20.5-43.2-63.9-22.7-96.9
	c14.3-23.1,40.7-35.8,67.6-32.9l-11.2,26.7l26.6-23.3c0.1,0,0.1,0,0.2,0.1c36.7,12.9,56,53.1,43,89.8l0,0c-0.5,1.3-1,2.5-1.5,3.7
	c7.5-3.7,14.7-8.2,20.6-13.8c11.9-11.4,18.5-27.1,25.8-46.6c14.4-38.5,28.3-77.5,41.7-116.5c-30.4-16.5-44.4-52.6-32.9-85.3
	c0.7-2.1,1.6-3.9,2.5-5.9c0.2-0.5,0.4-1,0.7-1.5c0.9-1.9,1.9-3.7,2.9-5.4c0.2-0.3,0.4-0.6,0.5-0.8c0.9-1.5,1.9-2.9,2.9-4.2
	c0.4-0.5,0.8-1,1.1-1.6c1.1-1.5,2.3-3,3.6-4.3c0.4-0.5,0.9-0.9,1.3-1.4c1-1,2-2,3-3c0.5-0.5,1.1-1,1.6-1.5c0.1-0.1,0.3-0.3,0.4-0.4
	l0,0c25.6-22.3,63.4-23.2,90-2l-14.6,34.8l26.3-23c18.9,24.1,19.9,57.7,2.6,82.9h0.1c-0.3,0.4-0.6,0.8-0.9,1.2
	c-0.6,0.8-1.1,1.6-1.7,2.3c-0.8,1-1.5,1.9-2.3,2.8c-0.6,0.7-1.2,1.4-1.8,2.1c-0.9,1-1.9,1.9-2.9,2.9c-0.6,0.5-1.1,1.1-1.7,1.6
	c-1.5,1.4-3.1,2.7-4.7,3.8c-0.6,0.4-1.2,0.8-1.8,1.2c-1.2,0.8-2.3,1.6-3.5,2.3c-0.7,0.5-1.5,0.9-2.3,1.3c-1.1,0.6-2.2,1.2-3.3,1.8
	c-0.8,0.4-1.6,0.8-2.4,1.2c-1.2,0.5-2.3,1-3.5,1.5c-0.8,0.3-1.6,0.6-2.4,0.9c-1.3,0.5-2.7,0.9-3.9,1.3c-0.7,0.2-1.4,0.4-2,0.6
	c-2,0.5-4,1-6.1,1.3c-0.4,0.1-0.8,0.1-1.2,0.1c-1.7,0.3-3.5,0.5-5.1,0.6c-0.8,0.1-1.5,0.1-2.3,0.1c-1.4,0.1-2.8,0.1-4.1,0.1
	c-0.8,0-1.7-0.1-2.5-0.1c-1.4-0.1-2.8-0.2-4.1-0.4c-0.8-0.1-1.6-0.2-2.5-0.3c-1.5-0.2-3-0.5-4.4-0.8c-0.1,0-0.2,0-0.3-0.1
	c-5.6,16.5-11.3,33-17.2,49.3c28.9-26,73.4-23.6,99.4,5.2c0.9,1,1.8,2.1,2.7,3.2l-24.4,26.9l33-13.1c8,16.8,9,36,2.9,53.6
	c-2.2,6.1-5.1,11.9-9,17.3c-22.4,31.8-66.3,39.3-98.1,16.9c-15.9-11.2-26.3-28.5-29.1-47.7c-0.6,1.7-1.2,3.4-1.9,4.9
	c-6.4,17.1-14.4,38.4-30.5,53.8c-10.9,10.5-24.3,17.1-37.2,22.7c-8.4,3.7-16.9,7-25.5,10.1c-9.6,5.8-20.3,9.3-31.5,10.1
	c-13.5,3.7-27.3,6.9-41.1,9.4l-8.7,1.5c-7.8,1.3-15.7,2.7-23.7,4.2c1.2,0.3,2.3,0.7,3.5,1.1c28.9,10.2,48,37.9,47,68.5l-54.3,17
	l49,7.8c-14.7,36-55.8,53.4-91.8,38.7c-9.8-3.9-18.5-10.1-25.6-17.9c0.5,1.7,1,3.4,1.5,5c1,3.3,2,6.6,3,9.9
	c12.9,44.3,7.3,79.2-15.7,98.2L564.2,779c22.4-18.5,15.4-56.5,9.3-77.7c-0.9-3.2-1.9-6.4-2.9-9.7c-8.4-27.9-18-59.6-5.6-88.6
	C583.7,559.3,637.3,550.1,680.4,542.7z"/>
<path fill="#17252A" d="M664.5,799.8H284.7c-26,0-47-21-47-47l0,0v-174c0-5.1,2.1-10,5.8-13.5l201.2-190.7
	c16.7-15.8,42.9-15.8,59.6,0l191.8,181.9c9.7,9.2,15.2,21.9,15.2,35.3v161C711.5,778.8,690.4,799.8,664.5,799.8L664.5,799.8z"/>
<path opacity="0.1" enable-background="new    " d="M237.8,581.8h469.7l0,0v189.8c0,15.7-12.7,28.3-28.3,28.3l0,0H266.1
	c-15.7,0-28.3-12.7-28.3-28.3l0,0L237.8,581.8L237.8,581.8L237.8,581.8z"/>
<path fill="none" stroke="#3F3D56" stroke-miterlimit="10" d="M237.3,570.4"/>
<path fill="#0069FF" d="M325.2,432.3h297.6c14.3,0,25.9,11.5,25.9,25.9v297.6c0,14.3-11.5,25.9-25.9,25.9H325.2
	c-14.3,0-25.9-11.5-25.9-25.9V458.1C299.5,443.8,311,432.3,325.2,432.3z"/>
<polygon opacity="0.1" enable-background="new    " points="648.8,589.6 648.8,781.6 299.5,781.6 299.5,589.6 474.1,674 "/>
<path fill="#17252A" d="M474.1,684.9L250.3,576.7c-4.5-2.2-10-0.3-12.1,4.2c-0.6,1.2-0.9,2.6-0.9,3.9V771
	c0,15.7,12.7,28.3,28.3,28.3l0,0h416.9c15.7,0,28.3-12.7,28.3-28.3l0,0V588.1c0-6.1-4.9-11.1-11.1-11.1c-1.7,0-3.4,0.4-4.8,1.1
	L474.1,684.9z"/>
<rect x="329.6" y="464.3" fill="#F2F2F2" width="97.7" height="13.8"/>
<rect x="321.7" y="514.7" fill="#F2F2F2" width="290.1" height="7.9"/>
<rect x="321.7" y="541.3" fill="#F2F2F2" width="290.1" height="7.9"/>
<rect x="321.7" y="567.9" fill="#F2F2F2" width="290.1" height="7.9"/>
<line fill="none" stroke="#3F3D56" stroke-miterlimit="10" x1="60.2" y1="799.3" x2="873.3" y2="799.3"/>
<path fill="#0069FF" d="M0,677.8C0,736,36.5,783.1,81.6,783.1"/>
<path fill="#6C63FF" d="M81.6,783.1c0-58.8,40.8-106.5,91.1-106.5"/>
<path fill="#0069FF" d="M29.6,683.1c0,55.3,23.3,100,52,100"/>
<path fill="#0069FF" d="M81.6,783.1c0-75.2,47.1-136,105.3-136"/>
<path fill="#A8A8A8" d="M64.4,783.8c0,0,11.5-0.4,15.1-2.9c3.6-2.5,17.8-5.4,18.7-1.5c0.9,3.9,17.4,19.8,4.3,19.9
	c-13,0.1-30.4-2.1-33.8-4.1S64.4,783.8,64.4,783.8z"/>
<path opacity="0.2" enable-background="new    " d="M102.7,798.1c-13,0.1-30.4-2.1-33.8-4.1c-2.7-1.6-3.7-7.4-4-10.1
	c-0.2,0-0.4,0-0.4,0s0.7,9.4,4.2,11.4c3.6,2.1,20.8,4.2,33.8,4.1c3.7,0,5-1.4,5-3.4C107,797.3,105.5,798,102.7,798.1z"/>
<path fill="#A0616A" d="M710.2,359.5c-0.6,5.3-4.6,9.6-6.1,14.6c-2.3,7.7,1.7,15.9,6.9,21.9c8.7,9.7,20.8,15.4,33.7,16.1
	c1.9,0.2,3.7,0,5.6-0.6c1.6-0.7,3.1-1.7,4.2-2.9c4-4,6.1-9.6,7-15.2s0.5-11.3,0.2-17c0-1.2-0.2-2.4-0.6-3.5c-0.6-1.1-1.3-2-2.2-2.7
	c-2.9-2.7-6-4.9-9.5-6.9c-1.6-0.7-2.9-1.8-3.9-3.1c-0.7-1.1-1.1-2.4-1.2-3.7l-1.1-5.3c-0.2-1.6-0.7-3.1-1.6-4.3
	c-1.9-2.5-5.4-2.9-8.5-3l-11.3-0.5c-3.6-0.1-8.2-1.2-11.6-0.5c-3.3,0.7-2.2,3.7-1.6,6.3C709.6,352.8,710.1,356.1,710.2,359.5z"/>
<path fill="#FFAAB0" d="M710.2,359.5c-0.6,5.3-4.6,9.6-6.1,14.6c-2.3,7.7,1.7,15.9,6.9,21.9c8.7,9.7,20.8,15.4,33.7,16.1
	c1.9,0.2,3.7,0,5.6-0.6c1.6-0.7,3.1-1.7,4.2-2.9c4-4,6.1-9.6,7-15.2s0.5-11.3,0.2-17c0-1.2-0.2-2.4-0.6-3.5c-0.6-1.1-1.3-2-2.2-2.7
	c-2.9-2.7-6-4.9-9.5-6.9c-1.6-0.7-2.9-1.8-3.9-3.1c-0.7-1.1-1.1-2.4-1.2-3.7l-1.1-5.3c-0.2-1.6-0.7-3.1-1.6-4.3
	c-1.9-2.5-5.4-2.9-8.5-3l-11.3-0.5c-3.6-0.1-8.2-1.2-11.6-0.5c-3.3,0.7-2.2,3.7-1.6,6.3C709.6,352.8,710.1,356.1,710.2,359.5z"/>
<path fill="#605D82" d="M782.4,597.3c-1.6,17.7-3.3,35.2-4.8,52.9c-1.3,13.9-2.6,27.8-5,41.5c-0.9,4.7-1.9,9.4-3.1,14.1
	c-3.3,12.9-8.1,25.6-9.7,38.8c0,0.4-0.1,0.8-0.1,1.2c-0.2,3-0.7,5.8-1.7,8.6c-0.8,2-2,3.8-2.8,5.8c-1.7,4-1.9,8.4-2.1,12.7
	c-5.8-3.3-12.2-5.5-18.9-6.5c-3.3-0.5-6.8-0.8-9-3.3c-2.5-2.7-2.2-6.7-1.8-10.3c1.3-11.1,2.6-22.1,3.8-33.2
	c0.4-4.7,1.2-9.5,2.4-14.1c0.4-1.6,1-3.1,1.5-4.5c0.7-2.1,1.5-4.1,2.1-6.3c0.8-3.5,1.4-6.9,1.7-10.5c1.3-11.2,2.9-22.2,4.2-33.4
	l0.1-0.6c2.1-16.9,3.7-33.7,3.2-50.7c-0.1-2.5-0.2-5-0.3-7.5c-0.2-3.7-0.6-5.6,2.5-7.9c3.4-2.6,7.7-4.2,11.5-5.9
	c2.1-0.9,24.7-8.9,25.3-7.2c1.1,3.7,1.6,7.6,1.7,11.5C783.2,587.8,782.9,592.5,782.4,597.3z"/>
<path opacity="0.1" enable-background="new    " d="M772.5,691.7c-0.9,4.7-1.9,9.4-3.1,14.1c-3.3,12.9-8.1,25.6-9.7,38.8
	c0,0.4-0.1,0.8-0.1,1.2c-10.1-14.4-18.6-29.9-28.4-44.5c0.7-2.1,1.5-4.1,2.1-6.3c0.8-3.5,1.4-6.9,1.7-10.5
	c1.3-11.2,2.9-22.2,4.2-33.4l0.1-0.6c0.6,2.4,1.4,4.6,2.5,6.8c6.6,13.4,22.3,20.2,30,33.1C772.2,690.9,772.4,691.3,772.5,691.7z"/>
<path fill="#605D82" d="M690.7,573.6c0.3,10.8,2.1,21.4,3.7,32.1l3.6,22c2,12,3.9,24.3,9.7,35c4.2,8.1,10.4,14.9,15.9,22.1
	c13.6,17.8,23.9,37.9,36.8,56.1c3.7,5.3,9.2,11.1,15.5,10c4.2-0.7,7.3-4.2,10.6-6.9c3.9-3.2,8.6-5.5,11.6-9.5
	c3.1-3.9,3.7-10.7-0.5-13.5c-1.5-0.8-3.1-1.5-4.7-2c-6.4-2.5-10.7-8.8-13.2-15.1c-2.6-6.3-4.2-13.2-7.8-19.1
	c-7.7-12.8-23.4-19.6-30-33.1c-3.7-7.5-4-16.2-4.3-24.6l-0.7-21.4c-0.1-2.4-0.1-4.7,0.8-6.9c2.6-5.7,10.2-6.2,16.4-6.9
	c7-0.8,13.8-3,20-6.3c3.6-1.9,7-4.3,9-8c1.8-3.3,2-7.1,2.2-10.8l2.2-38.8c0.2-3.4,0.4-6.8-0.8-9.9c-3-7.9-12.8-10.4-21.2-10.1
	c-15.6,0.7-30,7.4-44.7,11.9c-3.7,1.2-7.3,2.1-11.1,2.9c-3.3,0.7-7.3,0.4-10.5,1.5c-5.6,1.9-5.4,14.1-6.2,19.1
	C691.2,553.5,690.4,563.6,690.7,573.6z"/>
<path fill="#0069FF" d="M773.8,752.6c1.4,1.4,1.8,3.5,2.2,5.3c2,10.7,3.1,21.4,3.1,32.3c-0.1,1,0.1,2.1,0.6,3c0.4,0.5,0.9,1,1.5,1.2
	c3.9,1.9,8.6-0.8,11.8-3.7c6.1-5.3,11.3-12.6,11.6-20.7c-0.1-2.1,0-4.2,0.2-6.3c0.5-3.1,2.4-5.7,3.9-8.4c2.7-4.5,4.8-9.5,6.4-14.5
	c0.6-1.9,1-4.2-0.5-5.6c-0.5-0.4-1.1-0.7-1.8-0.9l-18-6.6c-1.6-0.6-5.4,9.4-6,10.5c-1.5,2.7-3,4.1-6,4.7c-3.1,0.6-6.7-0.3-9.6,1.3
	C768.7,746.6,771.1,749.8,773.8,752.6z"/>
<path fill="#0069FF" d="M746.2,758.7c-0.3-0.7-0.8-1.3-1.4-1.8c-0.8-0.5-1.8-0.9-2.8-0.9c-3.5-0.6-7.5-1-9.9,1.6
	c-2.2,2.4-1.9,6.2-3.7,8.9c-0.6,0.9-1.4,1.6-1.9,2.5c-0.6,1.4-0.9,2.9-0.8,4.3c-0.1,4.1-0.2,8.3,0.1,12.4c0.2,3.5,0.8,7.1,3,9.8
	c3.5,4.3,9.8,4.9,15.3,5.2l4.5,0.2c1.3,0.2,2.5,0,3.7-0.3c1.5-0.7,2.7-2,3.2-3.6c2.4-5.8-1.4-12.1-3.7-18
	C749.4,772.5,749.8,765,746.2,758.7z"/>
<path fill="#3F3D56" d="M708.9,329.7c-0.1-0.6,0-1.2,0.3-1.8c0.7-1.2,2.4-0.9,3.7-0.5c5.2,1.3,10.8,0.1,16.1,0.4s11.4,3,12.5,8.3
	c3.9-2.8,7.3-6.2,10-10.2c1.5-2.3,2.8-4.8,2.6-7.5c-0.3-3.8-3.6-6.7-6.5-9.2l-9-7.3c-1.2-1.1-2.6-2-4-2.6c-2.1-0.7-4.3-0.4-6.5-0.4
	c-6.5,0-13.4-3-19.2,0c-2.5,1.3-4.2,3.4-6,5.4l-8,9.5c-0.6,0.6-1.1,1.4-1.3,2.2c-0.2,1.2,0.4,2.3,0.6,3.5c0.4,2.1-0.5,4.3,0.2,6.4
	c1.2,3.4,5.2,3.8,7.8,5.8c0.9,0.7,2.4,3.2,3.6,3.2C707.4,334.9,708.8,331.3,708.9,329.7z"/>
<circle fill="#FFAAB0" cx="722.4" cy="332" r="25.6"/>
<path fill="#17252A" d="M728.4,388.1c-1.8-5.1-6.7-8.5-12-8.3c-0.8,0.1-1.6,0-2.3-0.3c-0.4-0.3-0.7-0.7-0.9-1.2
	c-1.6-2.8-2.8-5.7-3.7-8.8c-0.4-1.4-1-3-2.4-3.3c-1.2-0.2-2.3,0.4-3,1.3s-1.4,1.9-2.2,2.7c-3.3,2.9-8.9,0.3-12.3,2.9
	c-0.6,0.4-1,1-1.6,1.4c-0.6,0.4-1.2,0.6-1.9,0.8c-6.6,2.2-13,4.6-19.3,7.6c2.3,13.7,4.6,27.6,10,40.5c2.6,6.1,5.4,12,7.4,18.4
	c4.5,13.9,4.7,28.8,4.7,43.4c0,10,0,20.2-3.3,29.7c-0.9,2.1-1.5,4.2-1.9,6.5c-0.2,2.3,0.5,4.7,2.3,6.1c1.1,0.7,2.3,1.1,3.6,1.3
	c5.6,0.8,11.2-0.7,16.8-2c14.8-3.5,29.9-5.4,45-7.3l25.3-3.3c1.8-0.1,3.6-0.6,5.2-1.4c4.6-2.6,5-9.5,2.2-13.9
	c-1.4-2.1-3.4-3.8-4.4-6.1c-1.1-2.3-1.3-5.4,0.7-6.9c4-3.2,2.9-9.1,3.1-14.2c0.5-14.4,0.5-28.7-0.2-43.1c-0.2-3-0.3-5.9-0.1-9
	c0.5-5,1.4-10.1,2.8-14.9l7.7-30.2c-2-3.2-5.8-5.1-9.5-6.1c-3.7-1-7.4-1.2-11.1-2.3c-7.3-2.3-13.9-8.1-21.5-7.5
	c-0.6,0-1.2,0.2-1.7,0.4c-1.8,1-1.5,3.5-1.6,5.4c-0.2,4.3-3.5,8.1-7,10.7s-7.6,4.4-11,7.4C729.2,385.2,728.5,386.6,728.4,388.1z"/>
<path fill="#FFAAB0" d="M627.1,416.7c-1.7,1.1-3.5,2.1-5.4,2.8c-1.9,0.6-3.6,1.4-5.1,2.5c-0.7,0.6-1.3,1.4-1.8,2.2
	c-2.7,4.7-1,10.8,3.7,13.4c1.6,0.9,3.5,1.4,5.3,1.3c2.4-0.3,4.6-1,6.7-2l18.1-7.8c3.1-1.3,6.3-2.9,7.8-5.9c0.2-0.3,0.2-0.6,0.2-0.9
	c-0.1-0.3-0.4-0.6-0.8-0.8c-4-2.7-7.6-6-10.5-9.9c-0.8-1-1.7-3.4-2.7-3.9C638.7,405.3,630.2,414.7,627.1,416.7z"/>
<path fill="#FFAAB0" d="M820,410.3l6.6,7.6c1.4,1.7,2.9,3.3,4.1,5c3.2,4.4,5.7,9.3,7.6,14.3c1.5,3.7,2.7,7.8,2.2,11.8
	c-0.3,2.1-0.9,4-1.7,6c-1.2,3.7-2.8,7.4-4.5,10.9c-1.5,2.7-3.2,5.2-5.1,7.6c-5.1,6.8-10.8,13.3-16.9,19.3c-2.3,2.3-3.3,5.9-4.2,9
	c-1.9,5.6-6.2,10-10.4,14.1c-1.4,1.4-2.9,2.7-4.4,3.8c-2.4,1.6-5.2,2.4-8.1,2.3c-1.3,0-2.5-0.3-3.7-0.8c-2.9-1.4-4.3-4.7-4.6-7.9
	c-0.3-2.9,0.2-5.8,1.4-8.4c3.8-8.5,13.6-12.1,20.5-18.3c4-3.7,7.2-8.2,10.3-12.6c2.1-2.8,3.8-5.8,5.1-9.1c1.6-4.1,1-9,2.3-13.2
	c0.6-1.8,1.6-3.4,2.2-5.1c0.6-1.8,0.8-3.8-0.3-5.3c-0.8-1-1.9-1.7-3.1-2.2c-4.4-2.3-9.4-5.1-10.3-10.1c-0.3-2.7,0.4-5.4,2-7.7
	c1.6-2.2,3.5-4.1,5.6-5.8C814.8,413.9,818,411.9,820,410.3z"/>
<path fill="#FFAAB0" d="M622.8,427.3c-1.2-2.4-2.7-4.8-5-6c-2.4-1-4.9-1-7.3,0c-2.3,1-4.4,2.3-6.4,3.8l-5.7,4.2
	c-1.3,0.9-2.5,1.9-3.5,3.2c-0.9,1.5-1.5,3.2-1.8,4.8c-1,3.9-1.3,8-0.9,12c0.9,6.5,4.8,12.1,9.1,17.1c2.7,3.1,6,6.2,10.1,6.3
	c1.8,0.1,3.7-0.6,4.4-2.3c0.3-0.6,0.4-1.3,0.4-2c0.4-7.2-2.2-14.3-5.1-20.8c-1-1.7-1.5-3.7-1.7-5.6c0-0.3,0.1-0.7,0.2-1
	c0.3-0.3,0.6-0.4,1-0.5c4.1-0.8,11.2,2.4,14.1-2.2C626.7,435.5,624.1,430,622.8,427.3z"/>
<path fill="#17252A" d="M707.5,321.6c-0.1-0.6,0-1.2,0.3-1.8c0.7-1.2,2.4-0.9,3.7-0.5c5.2,1.3,10.8,0.1,16.1,0.4
	c5.3,0.3,11.4,3,12.5,8.3c3.9-2.8,7.3-6.2,10-10.2c1.5-2.3,2.8-4.8,2.6-7.5c-0.3-3.8-3.6-6.7-6.5-9.2l-9-7.3c-1.2-1.1-2.6-2-4-2.6
	c-2.1-0.7-4.3-0.4-6.5-0.4c-6.5,0-13.4-3-19.2,0c-2.5,1.3-4.2,3.4-6,5.4l-8,9.5c-0.6,0.6-1.1,1.4-1.3,2.2c-0.2,1.2,0.4,2.3,0.6,3.5
	c0.4,2.1-0.5,4.3,0.2,6.4c1.2,3.4,5.2,3.8,7.8,5.8c0.9,0.7,2.4,3.2,3.6,3.2C706.1,326.8,707.5,323.2,707.5,321.6z"/>
<path fill="#0069FF" d="M653.2,391.8c-1,0.7-2,1.5-2.7,2.5c-1,1.4-1.1,3.3-2,4.7c-1.7,3.2-5.7,4.3-8.3,7c-0.4,0.4-0.7,0.8-0.8,1.4
	c0,0.7,0.2,1.4,0.7,2l12.1,19c4,0.4,7.9-2.2,11.9-1.9c1.5,0.1,3.1,0.7,4.5,0.2c1-0.5,2-1.1,2.9-1.8c2.4-1.5,5.6-1.7,7.6-3.7
	c2-2,2.2-4.9,2.2-7.7c0-2.4-0.2-4.7-0.7-7.1c-1.8-7.3-7.4-12.9-10.9-19.4c-1.7-3.2-2.7-5-6.2-2.9C660,386.4,656.6,389.3,653.2,391.8
	z"/>
<path fill="#0069FF" d="M800.6,382.1c2.3,1.5,4.3,3.3,6.1,5.3c1.9,2.4,2.9,5.3,4.6,7.7c1.7,2.4,4,4.2,6,6.4c3,3.3,4.9,7.3,6.9,11.3
	c-4.8,6.3-10.1,12.2-15.7,17.8c-0.6,0.7-1.5,1.3-2.4,1.6c-1.3,0.1-2.6-0.4-3.4-1.4c-0.9-0.9-1.5-2.1-2.4-3c-2-2.1-4.6-3.3-7.4-3.6
	c-2.8-0.3-5.6-0.3-8.4-0.1c-0.6,0.1-1.3,0-1.8-0.3c-0.4-0.3-0.8-0.7-1-1.1c-3.3-5.6-2.3-12.6-1.1-18.9l2.7-14.6
	c0.4-2.8,1.1-5.5,2.2-8.1c1-2.2,3.3-5.8,6-5.1C794.6,376.4,798.2,380.5,800.6,382.1z"/>
<ellipse fill="#FFFFFF" cx="313.8" cy="437.7" rx="40.5" ry="40.6"/>
<path fill="#17252A" d="M313.8,390.3c-26.7,0-48.4,21.6-48.4,48.4s21.6,48.4,48.4,48.4s48.4-21.6,48.4-48.4
	C362,411.9,340.4,390.4,313.8,390.3z M303.8,464.4l-24.8-24.8l6.9-6.9l17.9,17.9l37.7-37.7l6.9,6.9L303.8,464.4L303.8,464.4z"/>
</svg>
