<?xml version="1.0" encoding="utf-8"?>
<!-- Generator: Adobe Illustrator 18.0.0, SVG Export Plug-In . SVG Version: 6.00 Build 0)  -->
<!DOCTYPE svg PUBLIC "-//W3C//DTD SVG 1.1//EN" "http://www.w3.org/Graphics/SVG/1.1/DTD/svg11.dtd">
<svg version="1.1" id="_x37_d1857de-4e1d-4ad3-937b-baacafe47dc3"
	 xmlns="http://www.w3.org/2000/svg" xmlns:xlink="http://www.w3.org/1999/xlink" x="0px" y="0px" viewBox="0 0 1030 729.9"
	 enable-background="new 0 0 1030 729.9" xml:space="preserve">
<title>static_assets</title>
<ellipse opacity="0.1" fill="#2988E5" enable-background="new    " cx="814.7" cy="585.2" rx="211.4" ry="41.1"/>
<path fill="#0069FF" d="M690.3,6.8c-5.8,0.9-12.8,3.6-15.7,11.8c-5.6,16.3,11.5,28.6,7.5,45.6c-1.2,4.7-3.7,8.9-7.1,12.3
	c-6,5.9-12.9,8.5-19.4,12.5s-13.3,10.3-16.3,20c-2.9,9.3-1.7,19.6,1.4,27.3c3,7.7,7.7,13.4,11.8,19.7c5,7.8,9.2,16.1,12.5,24.7
	c1.7,3.9,2.8,8.1,3.3,12.3c0.5,5.2-0.1,10.8-0.8,16.3l-6,48.7c-0.8,6.5-1.6,13.1-1.1,19.3c0.5,7.2,2.6,13.5,4.7,19.6
	c4.5,13.2,9.4,27,17.9,34.3s21.9,5.7,29.1-7.8c6.9-12.9,5.6-30.7,11.5-44.5c9.2-21.8,30.9-23.6,41.3-44.3c10-19.9,4.4-45.3,8.4-68.4
	c2.9-16.5,10.7-31.4,14.7-47.6c5.8-23.5,3-48.3-4.6-67s-19.7-32-32.6-42.2c-5.5-4.3-11.3-8.3-17.8-9c-6.9-0.8-12.5,5.1-19.1,6.5
	C706.2,8.3,698.1,5.6,690.3,6.8z"/>
<path fill="none" stroke="#535461" stroke-width="2" stroke-miterlimit="10" d="M726.9,0.9c0,0,5.5,211.9-33.6,334.4"/>
<path fill="none" stroke="#535461" stroke-width="2" stroke-miterlimit="10" d="M674.4,19.6c0,0,55.2,37,50.5,101.2"/>
<path fill="none" stroke="#535461" stroke-width="2" stroke-miterlimit="10" d="M638.2,113.8c0,0,87.1,17.3,83.7,53.5"/>
<path fill="none" stroke="#535461" stroke-width="2" stroke-miterlimit="10" d="M783.5,50.8c0,0-33.1,19.7-59.2,79.4"/>
<path fill="none" stroke="#535461" stroke-width="2" stroke-miterlimit="10" d="M764.4,234.7c0,0-22.7,12-45.5-35.6"/>
<path fill="none" stroke="#535461" stroke-width="2" stroke-miterlimit="10" d="M664,255.9c0,0,48.1-1.7,50.9-23.1"/>
<path fill="#0069FF" d="M67.3,578.6c0,0,8.4,11-3.9,27.5S41,636.6,45.1,646.9c0,0,18.5-30.7,33.5-31.2S83.8,597.1,67.3,578.6z"/>
<path opacity="0.1" enable-background="new    " d="M67.3,578.6c0.7,1.1,1.3,2.2,1.8,3.4c14.7,17.2,22.5,33.3,8.4,33.7
	c-13.1,0.4-28.9,23.9-32.7,29.8c0.1,0.5,0.3,0.9,0.4,1.3c0,0,18.5-30.7,33.5-31.2S83.8,597.1,67.3,578.6z"/>
<path fill="#FFD037" d="M82.8,592.6c0,3.9-0.4,7-1,7s-1-3.1-1-7s0.5-2,1.1-2S82.8,588.7,82.8,592.6z"/>
<path fill="#FFD037" d="M88.2,597.2c-3.4,1.8-6.3,3-6.6,2.5s2.3-2.3,5.7-4.2s2.1-0.5,2.3,0S91.6,595.3,88.2,597.2z"/>
<path fill="#0069FF" d="M23,578.6c0,0-8.4,11,3.9,27.5s22.3,30.5,18.3,40.8c0,0-18.5-30.7-33.5-31.2S6.4,597.1,23,578.6z"/>
<path opacity="0.1" enable-background="new    " d="M23,578.6c-0.7,1.1-1.3,2.2-1.7,3.4c-14.7,17.2-22.5,33.3-8.4,33.7
	c13.1,0.4,28.9,23.9,32.7,29.8c-0.1,0.5-0.3,0.9-0.4,1.3c0,0-18.5-30.7-33.5-31.2S6.4,597.1,23,578.6z"/>
<path fill="#FFD037" d="M7.4,592.6c0,3.9,0.4,7,1,7s1-3.1,1-7s-0.5-2-1.1-2S7.4,588.7,7.4,592.6z"/>
<path fill="#FFD037" d="M2.1,597.2c3.4,1.8,6.3,3,6.6,2.5s-2.3-2.3-5.7-4.2s-2.1-0.5-2.3,0S-1.3,595.3,2.1,597.2z"/>
<path fill="#565171" d="M10.1,645.5c0,0,23.4-0.7,30.5-5.8s36-11,37.8-3s35.2,40.1,8.8,40.3s-61.5-4.1-68.5-8.4
	S10.1,645.5,10.1,645.5z"/>
<path opacity="0.2" enable-background="new    " d="M87.6,674.3c-26.4,0.2-61.5-4.1-68.5-8.4c-5.4-3.3-7.5-15-8.2-20.4h-0.8
	c0,0,1.5,18.9,8.5,23.2s42.1,8.6,68.5,8.4c7.6-0.1,10.3-2.8,10.1-6.8C96.2,672.7,93.3,674.2,87.6,674.3z"/>
<path fill="#0069FF" d="M982.4,574c1.8-1.5,3.2-3.5,3.8-5.8c0.5-2.3-0.5-5-2.7-5.9c-2.5-0.9-5.1,0.8-7.1,2.5s-4.3,3.7-6.9,3.3
	c2.7-2.5,4-6.2,3.2-9.8c-0.1-0.7-0.4-1.4-0.9-2c-1.4-1.5-3.8-0.8-5.5,0.3c-5.2,3.7-6.7,10.7-6.7,17.1c-0.5-2.3-0.1-4.7-0.1-7
	s-0.7-5-2.6-6.2c-1.2-0.7-2.6-1-4-1c-2.3-0.1-4.9,0.2-6.5,1.9c-2,2.1-1.5,5.7,0.3,8s4.3,3.8,6.8,5.4c1.9,1.2,3.6,2.7,4.8,4.6
	c0.1,0.3,0.3,0.5,0.4,0.8h14.7C976.6,578.6,979.6,576.5,982.4,574z"/>
<path opacity="0.1" fill="#2988E5" enable-background="new    " d="M146.7,480.3c31.8,40.5,19.5,99.6-0.8,146.9
	c-6.8,15.8-14.4,32.6-11.6,49.6c3.5,20.8,22,36,41.5,44c35.5,14.7,78,11.2,110.6-9.1c28.2-17.5,48.4-46.1,77-62.8
	c48-28,109.1-17.4,161.2,1.9c36.9,13.7,77.2,31.4,113.8,17.1c25.8-10,43.6-34.5,53.3-60.4c4.7-12.5,8.1-26,17-36
	c5.3-5.9,12.3-10.1,19.4-13.6c65-32.2,147-15,210.1-50.7c42.6-24.1,69.9-69.6,82-117.1s10.7-97.2,7.6-146.1
	c-2.2-34.7-6.1-71.8-28.3-98.6c-23.5-28.4-63.8-38.9-100.2-33.5S830,136.7,801,159.3c-36.3,28.3-69.9,63.5-114.5,74.9
	c-30.3,7.8-62.3,3.5-93.6,2.1c-52.3-2.5-104.7,3-156.7,9c-49.8,5.8-100,12.1-147.4,28.3c-33.6,11.5-60.5,32.3-92.2,46.8
	c-20.7,9.5-43.2,12.1-62.8,24.2c-24.1,14.9-46.2,40.7-40,71C99.7,444.4,129.8,458.8,146.7,480.3z"/>
<ellipse opacity="0.1" fill="#2988E5" enable-background="new    " cx="552.3" cy="439.2" rx="427.7" ry="41.1"/>
<ellipse opacity="0.1" fill="#2988E5" enable-background="new    " cx="223.7" cy="676.2" rx="211.4" ry="41.1"/>
<path fill="#E6E6F0" d="M439.7,426.4l-3.3,4.9c0,0,3.7,4.9,4,5.5s10.7-0.3,10.7-0.3l0.9-3.7l-1.5-4.3L439.7,426.4z"/>
<polygon fill="#FDC2CC" points="327.1,423.7 320.4,424.9 324.6,433.1 329.2,435.5 333.5,438.6 334.7,435.2 331.6,428.8 "/>
<path fill="#565171" d="M436.7,344.5c0,0,35.6,8.5,42.3,18c0,0,6.1,5.2,0,14.6s-14.6,30.8-14.6,30.8s-6.1,20.7-8.5,22.2
	s-16.4,2.7-17.7-3c0,0,7.9-12.5,7.9-18.3s13.1-33.2,13.1-33.2s-29.8-3.4-39.3-1.2S424.2,341.2,436.7,344.5z"/>
<path opacity="0.1" enable-background="new    " d="M436.7,344.5c0,0,35.6,8.5,42.3,18c0,0,6.1,5.2,0,14.6s-14.6,30.8-14.6,30.8
	s-6.1,20.7-8.5,22.2s-16.4,2.7-17.7-3c0,0,7.9-12.5,7.9-18.3s13.1-33.2,13.1-33.2s-29.8-3.4-39.3-1.2S424.2,341.2,436.7,344.5z"/>
<path fill="#565171" d="M429.4,352.7c-0.1,1.8-0.3,3.8-0.5,5.9c-2,15.5-8.3,38.5-8.3,38.5s-6.4,13.7-8.2,22.5
	c-1.8,8.8-14.3,11-14.3,11s-34.1,4-41.1,2.4s-18,4.6-23.4,3.7s-8.8-13.7-8.8-13.7c9.4,0.1,18.8-1.9,27.4-5.8
	c14-6.4,34.1-3.4,34.1-3.4c3-0.9,5.6-3,7-5.8c2.1-4.6,2.1-32.3,1.5-34.1c-4-12-3.7-19.7-2.5-24.2c0.4-2,1.3-3.8,2.5-5.3L429.4,352.7
	z"/>
<path opacity="0.1" enable-background="new    " d="M429.4,352.7c-0.1,1.8-0.3,3.8-0.5,5.9c-3.1,0.2-11.6,0.5-18-3.5
	c-6-3.7-14.7-4.9-18.7-5.3c0.4-2,1.3-3.8,2.5-5.3L429.4,352.7z"/>
<path fill="#E6E6F0" d="M433.6,348.9c-1.4,4-3.6,8.7-3.6,8.7s-11.3,1.5-19.2-3.4s-20.7-5.5-20.7-5.5c2.1-1.3,3.5-5.1,4.3-8.5
	c0.5-1.9,0.9-3.8,1.1-5.8c0,0,37.4,7.6,39,8.8C435.2,343.8,434.5,346.2,433.6,348.9z"/>
<path fill="#FDC2CC" d="M500.3,220.6L454.9,248l-4.5,2.7v-13.4l3.1-1.5l38.3-18.3c0,0,1.8-33.2,6.7-28S500.3,220.6,500.3,220.6z"/>
<path opacity="0.1" enable-background="new    " d="M454.9,248l-4.5,2.7v-13.4l3.1-1.5C453.7,239.9,454.2,244,454.9,248z"/>
<path fill="#B45181" d="M419.9,252.9l32.6-18.9c0,0,0.6,18.3,4.3,21c0,0-13.4,4-18.6,12.5L419.9,252.9z"/>
<path opacity="0.1" enable-background="new    " d="M419.9,252.9l32.6-18.9c0,0,0.6,18.3,4.3,21c0,0-13.4,4-18.6,12.5L419.9,252.9z"
	/>
<path fill="#FDC2CC" d="M500,269c0,0-15.5,6.8-25.8,9.2c-2.3,0.7-4.7,1-7.1,0.8c-7-1.2,1.8-10,1.8-10l3.7-0.6l19.8-3.1
	c0,0,2.1-30.4,5.8-28S500,269,500,269z"/>
<path fill="#FDC2CC" d="M434.5,241.6c0,0-13.1,9.7-8.2,21.9c4.9,12.2-25.3-7.3-25.3-7.3s9.7-14.6,11.9-25.6S434.5,241.6,434.5,241.6
	z"/>
<path opacity="0.1" enable-background="new    " d="M433.6,348.9c-5.7-2.1-11.6-3.5-17.6-4.1c-8.8-1-16.9-2.7-21.5-4.5
	c0.5-1.9,0.9-3.8,1.1-5.8c0,0,37.4,7.6,39,8.8C435.2,343.8,434.5,346.2,433.6,348.9z"/>
<path opacity="0.1" enable-background="new    " d="M474.3,278.3c-2.3,0.7-4.7,1-7.1,0.8c-7-1.2,1.8-10,1.8-10l3.7-0.6
	C474.2,270.9,475.7,274.6,474.3,278.3z"/>
<path fill="#17252A" d="M413.2,247.1c0,0-11.9-0.3-16.1,4.6s-3.4,18-3.4,18s-0.9,26.3,5.8,41c0.2,0.5,0.2,1,0.1,1.5
	c-0.1,0.2-0.1,0.1-0.1,0.1s-4.3,19.2-8.5,22.5s9.1,7.3,25,9.1s22.2,6.4,22.2,6.4s2.7-3,3-9.7s-4.2-55.7-4.2-55.7s16.7,4.3,26.8-0.9
	c0,0,4.6,2.4,8.8-4.3s-3-14-3-14s-6.7,6.7-25.3-2.1S419,246.8,413.2,247.1z"/>
<path fill="#E6E6F0" d="M322.2,424.3h-3.6v5.2l3.6,8.2c0,0,4.9,0.9,5.2,0.9s4.3-0.9,4.3-0.9l1.2-2.1
	C332.9,435.5,319.5,430.4,322.2,424.3z"/>
<path fill="#17252A" d="M436.7,429.1l-5.5,12.2l23.1,11l18.3,0.6c0,0,1.5-4.3-4.6-6.4l-4.9-0.9c0,0-6.4-11.6-7-17c0,0-6.1,1.2-7,5.8
	C449.2,434.3,440.6,438.6,436.7,429.1z"/>
<path fill="#B45181" d="M319.5,423.1l-1.9,1.5l-8.2,6.7l18.9,25c0,0,10.6,4.6,15.5,0c0,0,3-3-3.6-5.5c0,0-5.2,0.9-5.2-4.3
	s1.2-10.7,3-11.9c0,0-4.6-1.5-5.8-0.3c-0.9,1-1.7,2.1-2.4,3.3C329.8,437.7,318.9,433.4,319.5,423.1z"/>
<path opacity="0.1" enable-background="new    " d="M412.3,231.3c-0.3,1.5-0.7,3.1-1.2,4.6c3.3,7.9,12.3,11.8,20.3,8.7
	c0.8-0.8,1.7-1.6,2.6-2.3C434,242.2,414.5,220.3,412.3,231.3z"/>
<path opacity="0.1" enable-background="new    " d="M410.7,271.9c0,0,9.4,12.5,23.1,12.8"/>
<g opacity="0.1">
	<path d="M467.1,284.1c-0.2-0.1-0.4-0.1-0.6-0.2c-0.3,0.2-0.6,0.3-0.9,0.4C466.1,284.4,466.6,284.3,467.1,284.1z"/>
	<path d="M470.3,266.9c-0.3-0.4-0.7-0.8-1.1-1.2c0,0-2,2-6.9,2.4C465,268.4,467.8,268,470.3,266.9z"/>
	<path d="M439.7,284.9l0.1,0.6c4,0.7,8.1,1.1,12.2,1C447.8,286.3,443.7,285.8,439.7,284.9z"/>
	<path d="M418.7,343.9c-15.8-1.8-29.2-5.8-25-9.1s8.5-22.5,8.5-22.5s0,0.1,0.1-0.1c0.2-0.5,0.1-1-0.1-1.5c-6.7-14.8-5.8-41-5.8-41
		s-0.9-13.1,3.4-18c3.2-3.6,10.6-4.4,14.1-4.5c-0.3,0-0.7,0-1,0c0,0-11.9-0.3-16.1,4.6s-3.4,18-3.4,18s-0.9,26.3,5.8,41
		c0.2,0.5,0.2,1,0.1,1.5c-0.1,0.2-0.1,0.1-0.1,0.1s-4.2,19.1-8.5,22.5s9.1,7.3,25,9.1s22.2,6.4,22.2,6.4c0.3-0.4,0.6-0.8,0.8-1.2
		C435.7,347.6,429.3,345.1,418.7,343.9z"/>
</g>
<circle fill="#FDC2CC" cx="426.3" cy="229.1" r="15.8"/>
<path opacity="0.1" enable-background="new    " d="M448.9,222.1c-1.3,3.3-5.2,4.5-8.7,5.4c-4.9,1.2-10.2,2.4-14.9,0.5
	c-0.6-0.3-1.3-0.5-2-0.4c-0.6,0.2-1,0.6-1.3,1.1c-5.2,7.4-4.3,17.2-5.7,26.1c-0.4,2.8-1.1,5.6-3,7.7c-3.6,4-10.5,3.9-13.9,8.1
	c-2.2,2.8-2.2,6.7-2.2,10.3c0,3.8,0,7.6-0.1,11.4c-0.1,2.5-0.2,5.1-1.3,7.3c-1.9,3.8-6.2,5.5-10.1,7c-2.5,0.9-5,1.9-7.6,1.6
	s-5.3-2-5.6-4.6c-0.5-3.6,3.2-6.1,5.8-8.7c4.1-4.1,5.7-10.1,5.9-15.9c0.1-2.3-0.2-4.7-1-6.9c-0.9-2.3-2.6-4.2-3.6-6.4
	c-3.1-6.9,0.7-14.9,5.3-20.9s10.1-11.9,11.1-19.4c0.1-1.6,0.3-3.2,0.7-4.8c0.7-2.2,2.4-8.2,4.2-9.6c2.9-2.2,6.4-3.6,10-4.2
	c2.8-0.4,5.7-0.3,8.5-0.8c3.3-0.6,6.3-2.2,9.6-2.8c7-1.3,14.7,6.9,17.8,13.4C447.4,218.6,449.7,220,448.9,222.1z"/>
<path fill="#F569BC" d="M448.9,221.4c-1.3,3.3-5.2,4.5-8.7,5.4c-4.9,1.2-10.2,2.4-14.9,0.5c-0.6-0.3-1.3-0.5-2-0.4
	c-0.6,0.2-1,0.6-1.3,1.1c-5.2,7.4-4.3,17.2-5.7,26.1c-0.4,2.8-1.1,5.6-3,7.7c-3.6,4-10.5,3.9-13.9,8.1c-2.2,2.8-2.2,6.7-2.2,10.3
	c0,3.8,0,7.6-0.1,11.4c-0.1,2.5-0.2,5.1-1.3,7.3c-1.9,3.8-6.2,5.5-10.1,7c-2.5,0.9-5,1.9-7.6,1.6s-5.3-2-5.6-4.6
	c-0.5-3.6,3.2-6.1,5.8-8.7c4.1-4.1,5.7-10.1,5.9-15.9c0.1-2.3-0.2-4.7-1-6.9c-0.9-2.3-2.6-4.2-3.6-6.4c-3.1-6.9,0.7-14.9,5.3-20.9
	s10.1-11.9,11.1-19.4c0.1-1.6,0.3-3.2,0.7-4.8c0.7-2.2,2.4-8.2,4.2-9.6c2.9-2.2,6.4-3.6,10-4.2c2.8-0.4,5.7-0.3,8.5-0.8
	c3.3-0.6,6.3-2.2,9.6-2.8c7-1.3,14.7,6.9,17.8,13.4C447.4,218,449.7,219.4,448.9,221.4z"/>
<path fill="#F7DF1E" d="M500,191h263.2v263.1H500V191z"/>
<path fill="#17252A" d="M569.2,410.9l20.1-12.2c3.9,6.9,7.4,12.7,15.9,12.7c8.1,0,13.3-3.2,13.3-15.5v-84.1h24.7v84.4
	c0,25.6-15,37.3-36.9,37.3C586.5,433.5,575.1,423.3,569.2,410.9 M656.7,408.3l20.1-11.7c5.3,8.7,12.2,15,24.4,15
	c10.3,0,16.8-5.1,16.8-12.2c0-8.5-6.7-11.5-18-16.4l-6.2-2.6c-17.8-7.6-29.7-17.1-29.7-37.3c0-18.5,14.1-32.7,36.2-32.7
	c15.7,0,27,5.5,35.2,19.8l-19.3,12.4c-4.2-7.6-8.8-10.6-15.9-10.6c-7.2,0-11.8,4.6-11.8,10.6c0,7.4,4.6,10.4,15.2,15l6.2,2.6
	c21,9,32.9,18.2,32.9,38.9c0,22.3-17.5,34.5-41,34.5C678.7,433.5,663.9,422.5,656.7,408.3"/>
<linearGradient id="SVGID_1_" gradientUnits="userSpaceOnUse" x1="889.1588" y1="30.1401" x2="889.1588" y2="368.6975" gradientTransform="matrix(1 0 0 -1 -84.99 646.93)">
	<stop  offset="0" style="stop-color:#808080;stop-opacity:0.25"/>
	<stop  offset="0.54" style="stop-color:#808080;stop-opacity:0.12"/>
	<stop  offset="1" style="stop-color:#808080;stop-opacity:0.1"/>
</linearGradient>
<path fill="url(#SVGID_1_)" d="M878.6,600.2c0,0-10.3,0.7-16.6-10.3c-1.2-2.2-2.7-4.3-4.4-6.2c-2-3.4-3.1-7.2-3.1-11.2
	c0.3-8.2-8.2-52.8-8.2-52.8s1.1-17-7.4-27.6c-5.6-7-13.7-27-18.5-39.9c0.3,0.3,0.7,0.5,1.1,0.6l-0.2-1.1h0.2l-2.5-13.8
	c-3.7-4.2-6.7-8.9-9.2-13.9l0.6-0.1l7.5-1.6c0,0,12.2-17.4,13-25.9h1h1.4c11.3-0.1,22.6,0.5,33.9,1.8l0,0c0,0-0.1-0.3-0.2-0.6l0,0
	c-0.5-1.7-0.8-3.5-1.1-5.2h0.7l7-0.5c0,0,24.1-26.9,15.2-31.9s-18.1,22.3-18.1,22.3l-3,0.5l-0.8,0.1c0.1-0.1,0.2-0.2,0.3-0.3
	s-39.3-1.8-45.4-11.3c0,0-17.4-13.8-18.1-23c-0.3-3.9-2.7-7.3-6.2-8.8c-2.1-1-4.5-1.5-6.9-1.3l-8.1,0.6l0.6,1H783
	c-0.5-1.2-0.9-2.4-1.3-3.6h0.2c-0.1-0.3-0.1-0.5-0.2-0.8c10.3-2.4,16.7-12.7,14.2-23c0-0.2-0.1-0.4-0.1-0.5c0.8,0.1,1.6,0.1,2.4-0.1
	c3-0.6,5.1-3.6,5.2-6.7c0-0.2,0-0.4,0-0.6c0,0,0-0.1,0-0.1c-0.1-3.1-1.5-6-4-7.9c-1.6-1.4-3.6-2.3-5-3.8c-1.8-1.8-2.7-4.2-4.1-6.3
	c-2.3-3.5-5.7-6.1-9.6-7.5c-2.9-1-6.5-1.1-8.8,1c-1.2,1.1-1.8,2.7-3.1,3.6c-1.9,1.3-4.4,0.9-6.7,1.2c-4.2,0.6-7.8,3.4-9.6,7.2
	c-1.1,2.4-1.7,5-1.6,7.6c0,1.8,0.2,3.6,0.6,5.4c0.4,1.7,1.1,3.4,1.6,5.2c1,3.6,1.2,7.4,2.4,10.9c0.8,2.6,2.3,5,4.4,6.7l-0.3,1.5
	c-0.2,0-5.7,1.2-9.5,9.6c-3,6.6-13.2,13.4-17.7,16.1c-1.7,1-2.9,2.7-3.3,4.6c-0.4,1.9-0.6,3.9-0.6,5.9c-0.1,4.3,0.8,10.2,4.2,17.7
	c7.8,17,13.5,24.4,13.5,24.4s0.4,5.2,0.5,10.7c0,4.1-0.3,8.2-1.2,10.2c-0.7,1.7-1,6.1-0.9,11.1c0,9.6,0.9,22.2,0.9,22.2
	s2.7,0.5,6.9,1.1l2.6,45.9c0.3,5.6-1.5,11-5,15.3c-1.8,2.3-3.9,4.3-6.3,6c-7.4,5.3-23.4,61.3-23.4,61.3s0.8,0,2.1,0.2l-4.9,13.7
	c0,0,19.6,15,31.5,10.9c1.3-0.4,2.6-0.6,4-0.6c2.3,0,7.4-1.9,4.6-4.3c-5.4-5-10.5-10.3-15.3-15.9c0.4,0.2,0.8,0.4,1.1,0.7v-0.1
	l0.2,0.1c0,0,0-0.5,0.1-1.5l-0.2-0.1c0.4-3.7,1.5-13,3.8-14.1c2.8-1.4,23.7-42.9,23.7-42.9l20.9-53.8c0,0,16.7,28.7,30.8,33.7v12
	c0,0,7.8,35.4,10.6,39.3s0,19.5,0,19.5c0.6,0.6,1.2,1.2,1.9,1.7l-2.3,12.8c0,0,16.3-0.7,43.9,7.8
	C876.9,610.5,887.5,605.9,878.6,600.2z M813.4,414.9l-3.5,0.9l-0.7,0.2c-0.1-0.4-0.1-0.7-0.1-0.7c-0.8,0.4-1.6,0.6-2.5,0.6
	c-1.2-3.9-1.9-7.9-2.1-12c-1.2-4.9-1.9-9.8-2.1-14.8c0-2.6,0.4-4.8,1.4-6.1l1.2,0.1l0.8,0.8l0.1,0l0.4,0.4l0,0l0.4,0.4l0.1,0.1
	l0.5,0.4l0.1,0.1l0.5,0.4l0,0l0.5,0.4l0.1,0.1l0.6,0.5l0,0l0.5,0.4l0.1,0.1l0.6,0.5l0.1,0.1l0.6,0.4l0.1,0.1l0.7,0.5l0.2,0.1
	l0.7,0.5h0.1l0.7,0.5l0.2,0.1l0.7,0.5l0.2,0.1l0.7,0.4l0.1,0.1l0.8,0.5l0.2,0.1l0.8,0.5h0.1l0.8,0.4l0.2,0.1l0.8,0.4l0.2,0.1
	l0.8,0.4l0.2,0.1l0.9,0.4l0.2,0.1l0.9,0.4l0,0C816.3,400.4,813.4,414.9,813.4,414.9z"/>
<path fill="#4F4D59" d="M726.1,583.1l-6.6,18.3c0,0,18,13.8,29.7,10.9c1.8-0.4,3.6-0.7,5.4-0.9c2.4-0.2,6.6-2,4-4.2
	c-8.3-7.3-19.4-20.8-19.4-20.8L726.1,583.1z"/>
<path fill="#4F4D59" d="M835.4,581.4l-3.1,17.6c0,0,15.9-0.7,42.9,7.6c0,0,10.4-4.5,1.7-10c0,0-10,0.7-16.3-10s-10-9.3-10-9.3
	L835.4,581.4z"/>
<path fill="#17252A" d="M753,453.4l3,53.7c0.3,5.7-1.6,11.3-5.3,15.7c-1.7,2-3.6,3.8-5.7,5.3c-7.3,5.2-22.8,59.8-22.8,59.8
	s17.6,1,22.5,4.5c0,0,1-13.8,3.8-15.2s23.2-41.8,23.2-41.8l20.4-52.6c0,0,16.3,28,30.1,32.9v11.8c0,0,7.6,34.6,10.4,38.4s0,19,0,19
	s8,10,26.3-0.7c0,0-5.9-6.6-5.5-14.5s-8-51.5-8-51.5s1-16.6-7.3-27s-22-50.1-22-50.1l-9.5-20.5L753,453.4z"/>
<g opacity="0.1">
	<path d="M725.5,587.9c0,0,15.6-54.6,22.8-59.8c2.2-1.6,4.2-3.5,6-5.7c3.5-4.3,5.3-9.8,5-15.3l-3-53.7l51-31.4l-0.7-1.5l-53.4,32.9
		l3,53.7c0.3,5.6-1.5,11-5,15.3c-1.8,2.1-3.8,4-6,5.7c-7.3,5.2-22.8,59.8-22.8,59.8s17.6,1,22.5,4.5c0,0,0-0.5,0.1-1.4
		C738.2,588.7,725.5,587.9,725.5,587.9z"/>
	<path d="M835.9,584.8c0,0,2.8-15.2,0-19s-10.4-38.4-10.4-38.4v-11.8c-13.8-4.8-30.1-32.9-30.1-32.9l-1.2,3.1
		c4.7,7.4,17.2,25.9,28.2,29.7v11.8c0,0,7.6,34.6,10.4,38.4s0,19,0,19s3.9,4.9,12.4,4.2C838.8,588.5,835.9,584.8,835.9,584.8z"/>
</g>
<path fill="#714B4F" d="M872,393.2l-6.8,0.5l-3.6,0.2v-8.6l4.7-0.9l2.9-0.5c0,0,9-26.6,17.6-21.8S872,393.2,872,393.2z"/>
<path fill="#714B4F" d="M763.1,321.9c0,0-4.5,17.3-5.9,28s32.2,2.1,32.2,2.1s-12.8-15.6-5.5-23.9L763.1,321.9z"/>
<path fill="#E6E6F0" d="M799.4,393.9l0.7,6.6l-10.7-0.7l-10.7-9.3l-10.7-30.1l-6.9-10.7l-5.2-6.6l2.1-8c0,0,1,0.8,2.5,2
	c5.3,4,17.6,12.4,26.7,10.1c0.4-0.1,0.8-0.2,1.2-0.4l13.5,23.2L799.4,393.9z"/>
<path opacity="0.1" enable-background="new    " d="M760.7,333c0,0-5.5,1-9.3,9.3c-2.9,6.4-12.8,13-17.2,15.7
	c-1.7,1-2.9,2.7-3.3,4.7c-0.9,3.9-1.2,11.3,3.6,21.9c7.6,16.6,13.1,23.9,13.1,23.9s1.4,16.6-0.7,21.4c-2.1,4.8,0,31.5,0,31.5
	s36.3,6.9,48.4,0s10.4-33.5,10.4-33.5s11.4,24.2,15.6,24.9l-2.4-13.5c0,0-13.5-14.5-14.2-33.2c0,0-4.2-17-0.7-21.4
	c0,0,58.5,4.8,61.9,0.7c0,0-38.4-1.7-44.3-11.1c0,0-17-13.5-17.6-22.5c-0.2-3.4-2.2-6.5-5.2-8.1c-2.4-1.3-5.1-1.9-7.8-1.7l-7.8,0.5
	c0,0,13.5,23.9,12.8,27s0.7,28.4,0.7,28.4s-15.6-33.5-22.5-37.3s-14.9-19.4-14.9-19.4L760.7,333"/>
<path opacity="0.1" enable-background="new    " d="M799.4,393.9l0.7,6.6l-10.7-0.7l-10.7-9.3l-10.7-30.1l-6.9-10.7l-5.2-6.6l2.1-8
	c0,0,1,0.8,2.5,2l-0.5,2.7c0,0,8,15.6,14.9,19.4s22.5,37.4,22.5,37.4s-1.4-25.3-0.7-28.4c0.5-2.1-5.6-13.8-9.5-21.1
	c0.4-0.1,0.8-0.2,1.2-0.4l13.5,23.2L799.4,393.9z"/>
<path opacity="0.1" enable-background="new    " d="M865.2,393.7l-3.6,0.2v-8.6l4.7-0.9C864.7,386.6,864.8,390.4,865.2,393.7z"/>
<path fill="#17252A" d="M760.7,332c0,0-5.5,1-9.3,9.3c-2.9,6.4-12.8,13-17.2,15.7c-1.7,1-2.9,2.7-3.3,4.7
	c-0.9,3.9-1.2,11.3,3.6,21.9c7.6,16.6,13.1,23.9,13.1,23.9s1.4,16.6-0.7,21.4c-2.1,4.8,0,31.5,0,31.5s36.3,6.9,48.4,0
	s10.4-33.5,10.4-33.5s11.4,24.2,15.6,24.9l-2.4-13.5c0,0-13.5-14.5-14.2-33.2c0,0-4.2-17-0.7-21.4c0,0,13.5,14.5,28.7,14.2
	c11.1-0.1,22.2,0.5,33.2,1.7c0,0-3.5-11.1,0-15.2c0,0-38.4-1.7-44.3-11.1c0,0-17-13.5-17.6-22.5c-0.2-3.4-2.2-6.5-5.2-8.1
	c-2.4-1.3-5.1-1.9-7.8-1.7l-7.8,0.5c0,0,13.5,23.9,12.8,27s0.7,28.4,0.7,28.4s-15.6-33.6-22.5-37.4s-14.9-19.4-14.9-19.4L760.7,332"
	/>
<path opacity="0.1" enable-background="new    " d="M753,368.3c0,0,8.3,28,13.1,31.5s34.2,21.1,42.9,17c0,0,2.1,10.4-1,12.8
	c0,0-32.3-1.3-32.5-1.4c0,0-21.1-2.8-24.6-13.1s-7.6-28-7.6-28L753,368.3z"/>
<ellipse fill="#0069FF" cx="797.3" cy="398.2" rx="1.2" ry="1.7"/>
<ellipse fill="#0069FF" cx="800.8" cy="410.3" rx="1.2" ry="1.7"/>
<g opacity="0.1">
	<path d="M749.2,459.9c0,0-2.1-26.6,0-31.5s0.7-21.4,0.7-21.4s-5.5-7.3-13.1-23.9c-4.8-10.6-4.5-17.9-3.6-21.9
		c0.4-1.9,1.7-3.6,3.3-4.7c4.4-2.7,14.3-9.3,17.2-15.7c2.2-4.7,4.8-7,6.8-8.2l0.1-0.8c0,0-5.5,1-9.3,9.3c-2.9,6.4-12.8,13-17.2,15.7
		c-1.7,1-2.9,2.7-3.3,4.7c-0.9,3.9-1.2,11.3,3.6,21.9c7.6,16.6,13.1,23.9,13.1,23.9s1.4,16.6-0.7,21.4c-2.1,4.8,0,31.5,0,31.5
		s25.9,4.9,41.3,2.3C772.6,464.4,749.2,459.9,749.2,459.9z"/>
	<path d="M795.9,368.3c-0.5,2.1,0,14.7,0.4,22.3c1.7,3.4,2.7,5.7,2.7,5.7s-1.4-25.3-0.7-28.4c0.7-3-11.5-24.7-12.7-26.8l-2.5,0.2
		C783.1,341.4,796.6,365.2,795.9,368.3z"/>
	<path d="M835,397.4c-15.2,0.4-28.7-14.2-28.7-14.2c-0.4,0.6-0.7,1.2-0.9,1.9c4,3.7,15,12.9,27.2,12.6c11.1-0.1,22.2,0.5,33.2,1.7
		c0,0-0.1-0.2-0.2-0.6C855.4,397.8,845.2,397.3,835,397.4z"/>
	<path d="M808,426.4c0,0,0.1,2.2,0.1,5.4c3.6,7.1,10.2,19.3,13.1,19.8l-0.5-2.8C815.6,442.5,808,426.4,808,426.4z"/>
</g>
<path fill="#714B4F" d="M817.7,422.9l-7.3,1.5l-5.8,1.2l3.1-8.6l2.2-0.5l3.4-0.8c0,0,4.8-24.2,14.5-22.5S817.7,422.9,817.7,422.9z"
	/>
<path opacity="0.1" enable-background="new    " d="M810.4,424.5l-5.8,1.2l3.1-8.6l2.2-0.5C810.3,419.2,810.5,421.8,810.4,424.5z"/>
<path fill="#17252A" d="M753,367.6c0,0,8.3,28,13.1,31.5s34.2,21.1,42.9,17c0,0,2.1,10.4-1,12.8c0,0-32.3-1.3-32.5-1.4
	c0,0-21.1-2.8-24.6-13.1s-7.6-28-7.6-28L753,367.6z"/>
<path opacity="0.1" enable-background="new    " d="M763.4,322.7c0,0-0.7,2.7-1.6,6.6c3.9,7.5,12.4,11.4,20.6,9.5
	c-0.8-3.5-0.7-7.1,1.8-9.9L763.4,322.7z"/>
<circle fill="#714B4F" cx="777.9" cy="319.9" r="18.7"/>
<path opacity="0.1" enable-background="new    " d="M794.2,314.8c1.4,0.4,2.8,0.5,4.2,0.3c3-0.8,5-3.5,5.1-6.5
	c-0.1-3-1.5-5.9-3.8-7.7c-1.6-1.3-3.5-2.3-4.9-3.7c-1.7-1.8-2.7-4.1-4-6.1c-2.2-3.4-5.5-6-9.4-7.3c-2.9-1-6.4-1.1-8.6,1
	c-1.1,1.1-1.8,2.6-3,3.5c-1.8,1.3-4.3,0.9-6.5,1.2c-4.1,0.6-7.6,3.2-9.4,7c-1.7,3.8-2,8-0.9,12c0.4,1.7,1.1,3.3,1.5,5
	c1,3.5,1.2,7.2,2.3,10.7s3.4,6.9,6.9,7.9c-0.3-3.9,0.5-7.8,2.2-11.3c0.3-0.8,0.9-1.4,1.6-1.8c0.6-0.2,1.3-0.2,1.9,0
	c4.4,0.6,8.9-0.3,12.7-2.6c1.3-0.8,3.4-3.6,4.8-3.8C788.5,312.1,792.3,314.3,794.2,314.8z"/>
<path fill="#503F43" d="M794.2,314.1c1.4,0.4,2.8,0.5,4.2,0.3c3-0.8,5-3.5,5.1-6.5c-0.1-3-1.5-5.9-3.8-7.7c-1.6-1.3-3.5-2.3-4.9-3.7
	c-1.7-1.8-2.7-4.1-4-6.1c-2.2-3.4-5.5-6-9.4-7.3c-2.9-1-6.4-1.1-8.6,1c-1.1,1.1-1.8,2.6-3,3.5c-1.8,1.3-4.3,0.9-6.5,1.2
	c-4.1,0.6-7.6,3.2-9.4,7c-1.7,3.8-2,8-0.9,12c0.4,1.7,1.1,3.3,1.5,5c1,3.5,1.2,7.2,2.3,10.7s3.4,6.9,6.9,7.9
	c-0.3-3.9,0.5-7.8,2.2-11.3c0.3-0.8,0.9-1.4,1.6-1.8c0.6-0.2,1.3-0.2,1.9,0c4.4,0.6,8.9-0.3,12.7-2.6c1.3-0.8,3.4-3.6,4.8-3.8
	C788.5,311.5,792.3,313.6,794.2,314.1z"/>
<path fill="#E44D26" d="M980.5,252.4l-15.2,170.7l-68.5,19l-68.3-19l-15.2-170.7H980.5z"/>
<path fill="#F16529" d="M896.9,427.6l55.3-15.3l13-145.9h-68.3V427.6z"/>
<path fill="#EBEBEB" d="M867.3,308.3h29.6v-20.9h-52.5l0.5,5.6l5.2,57.7h46.9v-20.9h-27.7L867.3,308.3z M872,361.1h-21l2.9,32.9
	l42.8,11.9h0.1v-21.9h-0.1l-23.3-6.3L872,361.1z"/>
<path fill="#17252A" d="M828.8,206h10.6v10.5h9.7V206h10.6v31.8h-10.6v-10.7h-9.7v10.7h-10.6V206z M873.8,216.6h-9.4V206h29.4v10.6
	h-9.4v21.3h-10.6L873.8,216.6L873.8,216.6L873.8,216.6z M898.5,206h11.1l6.8,11.2l6.8-11.2h11.1v31.8h-10.6v-15.8l-7.3,11.3h-0.2
	l-7.3-11.3v15.8h-10.4V206z M939.6,206h10.6v21.3h15v10.5h-25.6L939.6,206L939.6,206z"/>
<path fill="#FFFFFF" d="M896.8,350.6h25.8l-2.4,27.2l-23.3,6.3v21.8l42.9-11.9l0.3-3.5l4.9-55.1l0.5-5.6h-48.7V350.6L896.8,350.6z
	 M896.8,308.2L896.8,308.2l50.6,0l0.4-4.7l1-10.6l0.5-5.6h-52.5V308.2L896.8,308.2z"/>
<linearGradient id="SVGID_2_" gradientUnits="userSpaceOnUse" x1="376.5087" y1="-45.06" x2="376.5087" y2="350.15" gradientTransform="matrix(1 0 0 -1 -84.99 646.93)">
	<stop  offset="0" style="stop-color:#808080;stop-opacity:0.25"/>
	<stop  offset="0.54" style="stop-color:#808080;stop-opacity:0.12"/>
	<stop  offset="1" style="stop-color:#808080;stop-opacity:0.1"/>
</linearGradient>
<path fill="url(#SVGID_2_)" d="M366.7,378.4c-2-5.7-4.8-13-7-14.7c-0.1-0.1-0.3-0.2-0.4-0.3H359v-7l-5.3,0.8
	c-0.8-2.5-1.5-5.2-1.9-7.8c1,1,2.6,1.3,4,0.8c-0.1-0.1-0.2-0.3-0.2-0.4l0.2-0.1c-0.8-1.5-1.3-3.1-1.3-4.8c0-1.5,0.3-3.1,0.7-4.5
	c0.9-3.3,2.5-6.3,3.4-9.5c0.6-2.1,0.8-4.3,0.8-6.5c0-3.7-0.8-7.3-2.5-10.7c-0.4-1-1-1.8-1.9-2.4c-0.7-0.4-1.5-0.8-2.3-1.1
	c-1.3-0.9-2.4-2-3.3-3.3c-3.7-4.5-8.7-7.9-14.4-9.6c-1.5-0.5-3.1-0.7-4.6-0.4c-3.5,1-4.8,5.3-7.7,7.6c-2.5,2-6,2.2-9.2,2.9
	c-3.2,0.6-6.2,2.1-8.5,4.5c-1.5,1.7-2.3,3.9-2.3,6.2c-0.2,2.2,0.8,4.2,2.5,5.5c2,1.3,4.4,1.6,6.7,1c-3.5,12.1,3.5,24.7,15.6,28.2
	c0.6,0.2,1.1,0.3,1.7,0.4l0.6,1.1l0,0c1.9,3.5,3.3,7.3,4.3,11.2c-4.8,2.8-10.1,5.3-13.3,5.6c-0.1,1.2-0.4,2.5-0.7,3.7
	c-0.7,3-2.2,5.9-4.2,8.3c-4.3,4.9-23.9,41.8-23.9,41.8s-0.6,1.5-1.6,4c-12.1,1.5-31.9,3.6-37.5,2.5l-21.7-20.6c0,0-7,5.4-6.4,11.9
	l-3.9-3.7c0,0-20.6,15.7,11.9,26l49.5,5.8c-4.7,14.2-9.1,30.8-7.8,39.8h0.4c0.9,0,1.9-0.1,2.8-0.2l-0.1,1.6l-4.8,85.4
	c0,0-1.1,15.7,13.6,22.8c0,0,17.9,52.6,10.9,58.6c0,0,0.8,0.4,2.3,1.1l-14.7,13c0,0-10.9,2.7-16.8,2.2c-2.2-0.3-4.2,1.1-4.8,3.2
	c0,0.1,0,0.2-0.1,0.3v0.1c0,0.1,0,0.2,0,0.3s0,0.1,0,0.1s0,0.2,0,0.3v0.1c0,0.1,0,0.2,0.1,0.3v0.1c0,0.1,0.1,0.3,0.1,0.4v0.1
	c0,0.1,0.1,0.2,0.2,0.4v0.1c0.1,0.1,0.1,0.2,0.2,0.4l0.1,0.1c0.1,0.1,0.2,0.3,0.3,0.4l0.1,0.1c0.1,0.1,0.2,0.3,0.4,0.4h0.1l0.4,0.3
	l0.1,0.1l0.5,0.3l0.1,0.1l0.6,0.3h0.1l0.6,0.3h0.1l0.7,0.3l0.1,0.1l0.8,0.3h0.1l0.9,0.2h0.1l1,0.2h0.2l1,0.2h0.2l1.1,0.1
	c2.2,0.2,5.2,0.2,8.7,0.2l0,0c0,0,0,0.1,0,0.1s0,0.2,0,0.3v0.1c0,0.1,0,0.2,0.1,0.3v0.1c0,0.1,0.1,0.2,0.1,0.4v0.1
	c0,0.1,0.1,0.2,0.2,0.4v0.1c0.1,0.1,0.1,0.2,0.2,0.4l0.1,0.1c0.1,0.1,0.2,0.3,0.3,0.4l0.1,0.1c0.1,0.1,0.2,0.3,0.4,0.4h0l0.4,0.3
	l0.1,0.1l0.5,0.3l0.1,0.1l0.6,0.3h0.1l0.6,0.3h0.1l0.7,0.3l0.1,0.1l0.8,0.3h0.1l0.9,0.2h0.1l1,0.2h0.2l1,0.2h0.2l1.1,0.1
	c14.1,1.1,59.1-2.2,59.1-2.2v-0.1l0,0v-0.2l0,0c0.5-2.1,2.6-14.3-5.1-23.3c0.2-0.2,0.5-0.5,0.7-0.8c0,0-6-10.3-2.7-13.6
	s-15.9-59.2-15.9-59.2s-10.3-16.3-4.3-34.7s-0.5-38.5-0.5-38.5s14.3-4.2,14.5-21.8c0-0.5,0-1.1,0-1.6c0.3,0,0.6,0.1,0.9,0.1
	c0.2,0,0.4,0,0.6,0c0,0-2.7-9.8,0.5-16.8s10.3-0.5,16.8-29.3c4.7-20.8,8.9-44.7,10.8-56.4C368.7,388,368.3,383.1,366.7,378.4z
	 M242.9,439.4l-5-4.7c1.6,0.7,3.5,1.3,5.5,2l18.7,2.2C253.8,439.7,246,440.1,242.9,439.4L242.9,439.4z"/>
<path fill="#FDC2CC" d="M290.1,436.7c0,0-38.4,5.3-46.4,3.7l-21.3-20.3c0,0-20.3,15.5,11.7,25.6l59.7,6.9L290.1,436.7z"/>
<path opacity="5.000000e-002" enable-background="new    " d="M290.1,436.7c0,0-38.4,5.3-46.4,3.7l-21.3-20.3
	c0,0-20.3,15.5,11.7,25.6l59.7,6.9L290.1,436.7z"/>
<path fill="#264DE4" d="M215,450.1l-82.9-23l-18.5-207.3h203.1l-18.5,207.3L215,450.1z"/>
<path fill="#2965F1" d="M282.3,413.9l15.8-177.1h-83v195.7L282.3,413.9z"/>
<path fill="#EBEBEB" d="M156,313.7l2.3,25.4h56.9v-25.4H156z M151.4,262.2l2.3,25.4h61.4v-25.4L151.4,262.2L151.4,262.2z
	 M215.2,379.7h-0.1l-28.3-7.6l-1.8-20.3h-25.6l3.6,39.9l52.1,14.5h0.1L215.2,379.7z"/>
<path fill="#17252A" d="M161.4,163.5h30.8v12.9h-17.9v12.9h17.9v12.9h-30.8V163.5z M198.4,163.5h30.8v11.2h-18v2.2h17.9v25.8h-30.8
	v-11.8h17.9v-2.2h-17.9L198.4,163.5L198.4,163.5z M235.4,163.5h30.8v11.2h-18v2.2h17.9v25.8h-30.8v-11.8h17.9v-2.2h-17.9v-25.2
	H235.4z"/>
<path fill="#FFFFFF" d="M274.2,313.7l4.6-51.5H215v25.4h35.8l-2.3,26H215V339h31.3l-3,33l-28.3,7.7v26.5l52.1-14.5l0.4-4.3l6-66.9
	L274.2,313.7L274.2,313.7z"/>
<path fill="#47465A" d="M304,653.1l-18.7,16.5c0,0-10.7,2.7-16.5,2.1s-8.5,9.1,5.3,10.1s58.1-2.1,58.1-2.1s4.3-17.1-8.5-26.7H304z"
	/>
<path opacity="5.000000e-002" enable-background="new    " d="M304,653.1l-18.7,16.5c0,0-10.7,2.7-16.5,2.1s-8.5,9.1,5.3,10.1
	s58.1-2.1,58.1-2.1s4.3-17.1-8.5-26.7H304z"/>
<path opacity="0.3" fill="#FFFFFF" enable-background="new    " d="M332.9,672.4c0,1.9-0.3,3.9-0.7,5.8c0,0-44.2,3.2-58.1,2.1
	c-6.7-0.5-9.5-3-10-5.4c-0.6,2.7,1.8,6.3,10,7c13.9,1.1,58.1-2.1,58.1-2.1C332.8,677.4,333,674.9,332.9,672.4z"/>
<path fill="#FDC2CC" d="M325.9,350.9c0,0,11.7,16.5,7.5,27.7s22.4-11.7,22.4-11.7s-8.5-15-4.3-31L325.9,350.9z"/>
<path fill="#47465A" d="M322.7,659.5L304,676c0,0-10.7,2.7-16.5,2.1s-8.5,9.1,5.3,10.1s58.1-2.1,58.1-2.1s4.3-17.1-8.5-26.7
	L322.7,659.5z"/>
<path fill="#565171" d="M328,655.8c-2.8,3.4-6.7,4.8-10.8,5c-9.3,0.4-19.6-5-19.6-5c6.9-5.9-10.7-57.6-10.7-57.6
	c-14.4-6.9-13.3-22.4-13.3-22.4l4.7-83.9l1.2-21.1l14.9-9.1l11.8,9l11.2,8.6c0.7,2.7,1.2,5.5,1.4,8.3c1.3,19.6-14.2,24.2-14.2,24.2
	s6.4,19.7,0.5,37.8s4.3,34.1,4.3,34.1s19.2,55.4,16,58.6S328,655.8,328,655.8z"/>
<path opacity="5.000000e-002" enable-background="new    " d="M328,655.8c-2.8,3.4-6.7,4.8-10.8,5c-9.3,0.4-19.6-5-19.6-5
	c6.9-5.9-10.7-57.6-10.7-57.6c-14.4-6.9-13.3-22.4-13.3-22.4l4.7-83.9l1.2-21.1l14.9-9.1l11.8,9l11.2,8.6c0.7,2.7,1.2,5.5,1.4,8.3
	c1.3,19.6-14.2,24.2-14.2,24.2s6.4,19.7,0.5,37.8s4.3,34.1,4.3,34.1s19.2,55.4,16,58.6S328,655.8,328,655.8z"/>
<path fill="#565171" d="M346.6,662.2c-9.1,11.2-30.4,0-30.4,0c0.4-0.4,0.7-0.9,0.9-1.5c3.9-10.6-13.2-61.5-13.2-61.5
	c-14.4-6.9-16-23.5-16-23.5l-3.8-85.4l-0.5-11.1l22.4-8.6l6.9-2.6l22.9,17.6c1,3.6,1.5,7.4,1.4,11.2c-0.3,17.2-14.3,21.4-14.3,21.4
	s6.4,19.7,0.5,37.8s4.3,34.1,4.3,34.1s19.2,55.4,16,58.6S346.6,662.2,346.6,662.2z"/>
<path opacity="0.1" enable-background="new    " d="M337.5,496.9c-4.6-0.7-13.9-6.2-18.7-9.2c-1.8-1.2-3-1.9-3-1.9
	s-4.8-13.3-17.6-3.2c-4.2,3.4-8.9,6-13.9,7.9c-1.9,0.7-3.9,1.2-5.9,1.5l1.2-21.1l14.9-9.1l11.8,9l6.9-2.6l22.9,17.6
	C337,489.4,337.5,493.2,337.5,496.9z"/>
<path fill="#17252A" d="M366.3,394.6c-1.9,11.4-6,35-10.6,55.4c-6.4,28.3-13.3,21.8-16.5,28.8s-0.5,16.5-0.5,16.5
	c-5.3,0.5-22.9-11.2-22.9-11.2s-4.8-13.3-17.6-3.2s-22.9,9.6-22.9,9.6c-2.7-17.6,17.1-64.5,17.1-64.5s19.2-36.3,23.5-41
	c2-2.3,3.4-5.1,4.1-8.1c0.3-1.2,0.6-2.4,0.7-3.6c6.9-0.5,24-12.3,24-12.3l13.3-2.1v6.9c0.2,0.1,0.3,0.2,0.4,0.3
	c2.2,1.7,5,8.8,6.9,14.4C366.7,385.1,367.1,389.9,366.3,394.6z"/>
<path fill="#FDC2CC" d="M304,444.7l-6.9-0.8l-52.8-6.1c-32-10.1-11.7-25.6-11.7-25.6l21.3,20.3c6.1,1.2,30.3-1.6,41.1-3
	c3.2-0.4,5.3-0.7,5.3-0.7L304,444.7z"/>
<path opacity="0.1" enable-background="new    " d="M355.7,372.7c0,0-13.9-11.2-34.7,25s-25.6,30.4-25.6,30.4s4.3,16,2.1,19.2
	c0,0,14.4-1.1,19.7,0s38.4-40.5,38.4-40.5S372.8,383.4,355.7,372.7z"/>
<path opacity="0.1" enable-background="new    " d="M355.2,370.6c0,0-13.9-11.2-34.6,25S294.9,426,294.9,426s16.5,18.1,21.9,19.2
	s38.4-40.5,38.4-40.5S372.2,381.3,355.2,370.6z"/>
<path opacity="0.1" enable-background="new    " d="M297.1,443.9c0.2-4-1.3-10.9-2.1-14.5c3.2-0.4,5.3-0.7,5.3-0.7l3.7,16
	L297.1,443.9z"/>
<path fill="#17252A" d="M355.7,371.7c0,0-13.9-11.2-34.7,25.1s-25.6,30.4-25.6,30.4s4.3,16,2.1,19.2c0,0,14.4-1.1,19.7,0
	s38.4-40.5,38.4-40.5S372.8,382.3,355.7,371.7z"/>
<path opacity="0.1" enable-background="new    " d="M352,337l-25.6,14.9c1.1,1.6,2.1,3.2,3,4.9c1.5,0.3,3,0.5,4.5,0.5
	c6.8,0,10-7.2,14.1-12C347.7,341.4,350.8,341.3,352,337z"/>
<circle fill="#FDC2CC" cx="333.3" cy="333.8" r="22.4"/>
<path opacity="0.1" enable-background="new    " d="M305,315.7c2.3-2.3,5.2-3.9,8.4-4.4c3.1-0.7,6.5-0.9,9-2.9
	c2.8-2.3,4.1-6.5,7.5-7.5c1.5-0.3,3.1-0.2,4.5,0.4c5.5,1.7,10.4,5,14.1,9.4c0.9,1.3,2,2.4,3.3,3.3c0.8,0.3,1.5,0.7,2.2,1.1
	c0.8,0.6,1.4,1.5,1.8,2.4c2.5,5,3.1,10.8,1.6,16.3c-0.9,3.2-2.4,6.2-3.4,9.4s-1.2,6.8,0.5,9.7c-1.6,0.8-3.7-0.2-4.7-1.8
	s-1.3-3.4-1.9-5.2c-1.1-3.5-3.1-6.6-5.8-9c-1.7-1.5-4.7-2.5-5.9-0.6c-0.5,0.7-0.4,1.7-0.8,2.5c-0.8,1.5-3,1.8-4.4,1
	c-1.4-1-2.4-2.4-2.8-4.1c-2.2-7.4-5.9-12.1-13.9-8.9c-3,1.2-6.5,2-9.3,0C301.6,324.1,302.3,318.8,305,315.7z"/>
<path fill="#17252A" d="M305,315.2c2.3-2.3,5.2-3.9,8.4-4.4c3.1-0.7,6.5-0.9,9-2.9c2.8-2.3,4.1-6.5,7.5-7.5c1.5-0.3,3.1-0.2,4.5,0.4
	c5.5,1.7,10.4,5,14.1,9.4c0.9,1.3,2,2.4,3.3,3.3c0.8,0.3,1.5,0.7,2.2,1.1c0.8,0.6,1.4,1.5,1.8,2.4c2.5,5,3.1,10.8,1.6,16.3
	c-0.9,3.2-2.4,6.2-3.4,9.4s-1.2,6.8,0.5,9.7c-1.6,0.8-3.7-0.2-4.7-1.8s-1.3-3.4-1.9-5.2c-1.1-3.5-3.1-6.6-5.8-9
	c-1.7-1.5-4.7-2.5-5.9-0.6c-0.5,0.7-0.4,1.7-0.8,2.5c-0.8,1.5-3,1.8-4.4,1c-1.4-1-2.4-2.4-2.8-4.1c-2.2-7.4-5.9-12.1-13.9-8.9
	c-3,1.2-6.5,2-9.3,0C301.6,323.5,302.3,318.2,305,315.2z"/>
<path opacity="5.000000e-002" enable-background="new    " d="M358.3,366.1h-10.8c0,0-21.3,10.7-21.9,10.1c-0.4-0.4-3.7,0.3-5.8,0.7
	c0.3-1.2,0.6-2.4,0.7-3.6c6.9-0.5,24-12.3,24-12.3l13.3-2.1v6.9C358,365.9,358.1,366,358.3,366.1z"/>
<path opacity="0.3" fill="#FFFFFF" enable-background="new    " d="M351.6,678.8c0,1.9-0.3,3.9-0.7,5.8c0,0-44.2,3.2-58.1,2.1
	c-6.7-0.5-9.5-3-10-5.4c-0.6,2.7,1.8,6.3,10,7c13.9,1.1,58.1-2.1,58.1-2.1C351.4,683.8,351.6,681.3,351.6,678.8z"/>
<g opacity="5.000000e-002">
	<path d="M293.1,480.4c-7.2,5.7-13.5,8-17.7,9c0,0.4,0.1,0.8,0.1,1.2c0,0,10.1,0.5,22.9-9.6c2-1.7,4.3-2.9,6.9-3.6
		C302.5,476,298.5,476.1,293.1,480.4z"/>
	<path d="M365.4,380.5c-1.9-5.6-4.7-12.7-6.9-14.4c-0.1-0.1-0.3-0.2-0.4-0.3c0,0-4.4,0.1-4.3,0.3c2.2,1.7,4.3,8.3,6.2,13.9
		c1.5,4.6,1.9,9.4,1.2,14.2c-1.9,11.4-6,35-10.6,55.4c-6.4,28.3-13.3,21.8-16.5,28.8c-2.6,5.7-1.3,13.1-0.7,15.7
		c1.7,0.9,3.6,1.3,5.5,1.4c0,0-2.7-9.6,0.5-16.5s10.1-0.5,16.5-28.8c4.6-20.4,8.7-44,10.6-55.4C367.4,389.9,367,385,365.4,380.5z"/>
</g>
<path fill="#2988E5" d="M427.4,480c1.8-1.5,3.2-3.5,3.8-5.8c0.5-2.3-0.5-5-2.7-5.9c-2.5-0.9-5.1,0.8-7.1,2.5s-4.3,3.7-6.9,3.3
	c2.7-2.5,4-6.2,3.2-9.8c-0.1-0.7-0.4-1.4-0.9-2c-1.4-1.5-3.8-0.8-5.5,0.3c-5.2,3.7-6.6,10.7-6.7,17.1c-0.5-2.3-0.1-4.7-0.1-7
	s-0.7-5-2.6-6.2c-1.2-0.7-2.6-1-4-1c-2.3-0.1-4.9,0.2-6.5,1.9c-2,2.1-1.5,5.7,0.3,8s4.4,3.8,6.8,5.4c1.9,1.2,3.6,2.7,4.8,4.6
	c0.1,0.3,0.3,0.5,0.4,0.8h14.6C421.6,484.6,424.6,482.5,427.4,480z"/>
<path fill="#0069FF" d="M454.3,667.8c2.3-2.2,4.5-4.7,5.2-7.8s-0.7-6.8-3.6-8c-3.3-1.3-6.9,1-9.6,3.4s-5.8,5-9.3,4.5
	c3.7-3.4,5.4-8.4,4.4-13.3c-0.2-1-0.6-1.9-1.2-2.7c-1.8-2-5.2-1.1-7.4,0.4c-7,5-9,14.5-9,23.2c-0.7-3.1-0.1-6.3-0.1-9.5
	s-0.9-6.7-3.6-8.4c-1.7-0.9-3.6-1.3-5.5-1.3c-3.2-0.1-6.7,0.2-8.9,2.5c-2.7,2.9-2,7.7,0.4,10.9s5.9,5.2,9.2,7.3
	c2.6,1.6,4.9,3.7,6.5,6.3c0.2,0.4,0.4,0.7,0.5,1.1H442C446.5,674,450.6,671.2,454.3,667.8z"/>
</svg>
