<?xml version="1.0" encoding="utf-8"?>
<!-- Generator: Adobe Illustrator 18.0.0, SVG Export Plug-In . SVG Version: 6.00 Build 0)  -->
<!DOCTYPE svg PUBLIC "-//W3C//DTD SVG 1.1//EN" "http://www.w3.org/Graphics/SVG/1.1/DTD/svg11.dtd">
<svg version="1.1" id="_x36_088ba52-b752-42bb-ac91-0a74df332082"
	 xmlns="http://www.w3.org/2000/svg" xmlns:xlink="http://www.w3.org/1999/xlink" x="0px" y="0px" viewBox="0 0 1000 1000"
	 enable-background="new 0 0 1000 1000" xml:space="preserve">
<title>coding</title>
<rect x="847.6" y="377.3" fill="#535461" width="57.7" height="30"/>
<rect x="852" y="414" fill="#535461" width="57.7" height="30"/>
<rect x="804.3" y="159.8" fill="#535461" width="57.7" height="30"/>
<rect x="845.4" y="194.2" fill="#535461" width="57.7" height="30"/>
<rect x="734.4" y="162" fill="#535461" width="57.7" height="30"/>
<rect x="919.7" y="228.6" fill="#535461" width="57.7" height="30"/>
<rect x="849.8" y="230.8" fill="#535461" width="57.7" height="30"/>
<rect x="775.4" y="196.4" fill="#535461" width="57.7" height="30"/>
<rect x="916.4" y="459.5" fill="#535461" width="57.7" height="30"/>
<rect x="846.5" y="461.7" fill="#535461" width="57.7" height="30"/>
<path fill="#0069FF" d="M145.2,369.6c0,0,81.4,81.4,35.4,202s78.7,321.5,78.7,321.5s-1.3-0.2-3.8-0.7C88.4,863,5.3,671.8,98.3,530
	C132.9,477.1,161.2,415.2,145.2,369.6z"/>
<path fill="none" stroke="#535461" stroke-width="2" stroke-miterlimit="10" d="M145.2,369.6c0,0,46,99.7,0,181
	s-7.9,309.7,114.1,342.4"/>
<path fill="#2B7A78" d="M0.2,698.6c0,0,92.8-14.8,101.3,68.4s178.5,94.7,178.5,94.7s-1.1,0.8-3.2,2.1
	C136.4,956,2.2,922.6,22.4,800.1C30,754.7,29.3,709,0.2,698.6z"/>
<path fill="#0069FF" d="M0.2,698.6c0,0,92.8-14.8,101.3,68.4s178.5,94.7,178.5,94.7s-1.1,0.8-3.2,2.1
	C136.4,956,2.2,922.6,22.4,800.1C30,754.7,29.3,709,0.2,698.6z"/>
<path fill="none" stroke="#535461" stroke-width="2" stroke-miterlimit="10" d="M0.2,698.6c0,0,72,15.9,66.2,81.4
	s107,144.1,213.7,81.8"/>
<rect x="0.7" y="378.5" fill="#535461" width="57.7" height="30"/>
<rect x="41.7" y="412.9" fill="#535461" width="57.7" height="30"/>
<rect x="353.6" y="63.2" fill="#535461" width="57.7" height="30"/>
<rect x="808.7" y="616" fill="#535461" width="57.7" height="30"/>
<rect x="46.2" y="449.5" fill="#535461" width="57.7" height="30"/>
<rect x="394.7" y="97.6" fill="#535461" width="57.7" height="30"/>
<rect x="183.8" y="300.8" fill="#535461" width="57.7" height="30"/>
<rect x="224.9" y="335.2" fill="#535461" width="57.7" height="30"/>
<rect x="334.8" y="316.3" fill="#535461" width="57.7" height="30"/>
<rect x="229.3" y="371.8" fill="#535461" width="57.7" height="30"/>
<rect x="886.4" y="616" fill="#535461" width="57.7" height="30"/>
<linearGradient id="SVGID_1_" gradientUnits="userSpaceOnUse" x1="611.0262" y1="857.7999" x2="611.0262" y2="315.4" gradientTransform="matrix(1.11 0 0 1.11 -165.8564 -234.8207)">
	<stop  offset="0" style="stop-color:#808080;stop-opacity:0.25"/>
	<stop  offset="0.54" style="stop-color:#808080;stop-opacity:0.12"/>
	<stop  offset="1" style="stop-color:#808080;stop-opacity:0.1"/>
</linearGradient>
<path fill="url(#SVGID_1_)" d="M800,497.3c-3.8-20.8-6-41.8-6.9-62.9l0,0c-1.6-35.6-25.3-66.5-59.4-77c-6.1-1.9-12.8-3.7-20.1-5.2
	c-64.6-13.8-84.2-1.8-86.5-0.1c-1.9-3.4-3.6-7-4.9-10.7c-0.1-0.3-0.2-0.8-0.3-1.1c12.8-13.7,20.5-31.2,22.1-49.8
	c10.8-10.9,17.1-24.1,17.1-38.3c0-12.2-4.7-23.6-12.8-33.6v-19.3c0-46.3-37.5-83.9-83.9-83.9l0,0h-6.8c-46.3,0-83.9,37.5-83.9,83.9
	l0,0v20.8c-7.4,9.5-11.7,20.4-11.7,32.1c0,13.9,6,26.9,16.4,37.6c1.4,19.3,9.5,37.5,23,51.4c0.4,3.1,0.9,6.5,1.3,10.1l-115.6,24.4
	c0,0-44.5,1.8-73.3,61.1c-24.3,50.2-72.6,179-86.9,217.3l0,0c-2.6,7-4,10.9-4,10.9s0.4-0.4,1.3-1.3l-1.3,3.8c0,0,0.7-0.7,2-1.9
	c-2,16.1-2.3,43.6,18.8,47.1c17.6,2.9,63,4.1,97.3,4.6l0,0h2.3c22.8,0.3,40.1,0.3,40.1,0.3V717h369v-3.8c0-3.4-0.7-6.9-2-10l0.6-0.7
	c2,2.6,3.3,5.7,3.9,8.9c0,0.3-0.1,0.7-0.2,0.9l0.2-0.6c0.1,1,0,2-0.2,3c0,0,47.4-122,46.8-194.8C801.8,512.5,801.2,504.9,800,497.3z
	 M504.8,367.8c-0.7-3.4-1-7-1.2-10.5v-0.1C504.1,360.6,504.5,364.1,504.8,367.8z M361.4,629.8v29.1l-18.2,3.9L361.4,629.8z"/>
<path fill="#0069FF" d="M559.1,127.2L559.1,127.2c46.3,0,83.9,37.5,83.9,83.9v35.7l0,0H475.2l0,0v-35.7
	C475.2,164.7,512.8,127.2,559.1,127.2z"/>
<ellipse fill="#0069FF" cx="559.7" cy="258.6" rx="95.6" ry="65.7"/>
<path fill="#F7C4A7" d="M498.4,322.2c0,0,20,104.5,0,132.5c-20,28.1,61.1,39.3,61.1,39.3l83.9-30.5l11.8-75c0,0-51.1-28.7-40.5-86.8
	L498.4,322.2z"/>
<path fill="#F7C4A7" d="M745.9,674.2c0,0,5.3,22.9-23.4,27c-17,2.4-34.2,2.3-51.2-0.6l-6.3-57.5h66.9L745.9,674.2z"/>
<path fill="#F7C4A7" d="M238.3,644.9c0,0-12.7,51.6,16.1,56.3c28.7,4.7,134.3,4.7,134.3,4.7v-61.1L340.9,655L296,611.9L238.3,644.9z
	"/>
<path opacity="0.1" enable-background="new    " d="M504.6,355.9l-112.3,23.8c0,0-42.8,1.8-70.4,58.7s-87.5,219.4-87.5,219.4
	s51.1-51.6,110.9,3.6l39.8-72.2l-8.8,114.4h309.1v-53.9c0,0,64.5,34.6,59.8,53.9c0,0,55.3-142.3,43.3-206.9
	c-3.6-20-5.8-40.2-6.5-60.5l0,0c-1.4-34.3-24.3-63.9-57.1-74c-5.8-1.8-12.2-3.4-19.3-5c-66.3-14.1-83.3,0-83.3,0
	S609.6,399,609.8,418c0.3,24.3-34.6,40.5-34.6,40.5s-51.6-12.3-53.9-22.3C518.9,426.2,500.5,367.7,504.6,355.9z"/>
<path fill="#17252A" d="M504.6,353.6l-112.3,23.8c0,0-42.8,1.8-70.4,58.7c-27.5,56.9-87.5,219.4-87.5,219.4s51.1-51.6,110.9,3.6
	l39.8-72.2l-8.8,114.3h309.1v-53.9c0,0,64.5,34.6,59.8,53.9c0,0,55.3-142.3,43.3-206.9c-3.6-20-5.8-40.2-6.5-60.5l0,0
	c-1.4-34.3-24.3-63.9-57.1-74c-5.8-1.8-12.2-3.4-19.3-5c-66.3-14.1-83.3,0-83.3,0s-12.9,41.7-12.7,60.7
	c0.3,24.3-34.6,40.5-34.6,40.5s-51.6-12.3-53.9-22.3C518.9,423.7,500.5,365.2,504.6,353.6z"/>
<path opacity="0.1" enable-background="new    " d="M619.4,348.6c-4.8-13.3-5.8-27.8-3.1-41.6l-116.1,20.4c0,0,1.7,8.8,3.6,22
	c30.5,31.7,81,32.6,112.8,2.1C617.5,350.5,618.4,349.6,619.4,348.6L619.4,348.6z"/>
<path fill="#F7C4A7" d="M639.2,288.8c-0.2,44.1-36.1,79.6-80.1,79.5c-43.1-0.2-78.1-34.5-79.4-77.5c0-0.7,0-1.3,0-1.9
	c0-30.5,17.3-58.3,44.7-71.7c2.4-1.2,4.9-2.2,7.3-3.1c13.1-4.8,27.3-6.1,41.1-3.8l0,0c36.4,6.2,63.7,36.5,66.2,73.4
	C639.1,285.2,639.2,287,639.2,288.8z"/>
<g opacity="0.1">
	<path d="M531.6,215.7L531.6,215.7c-2.4,0.9-4.9,1.9-7.2,3.1c-27.4,13.4-44.7,41.2-44.7,71.7c0,0.7,0,1.3,0,1.9
		c2.4-0.1,4.9-0.7,7.2-1.7c19.4-9.1,31.1-36.9,35.7-56.2C524.1,227.6,525.7,219.8,531.6,215.7z"/>
	<path d="M592.7,217.9c-6.3-2.9-13-5-19.9-6.1c5.7,1.3,10.7,4.4,14.2,9c1.8,2.4,3.2,5,4.3,7.8c-21.5-9.4-46.1-8.9-67.2,1.4
		c5,11,20.5,17,30.9,21c11.3,4.3,22.9,8.4,34.4,12l-10.2-8.3l23.2,3.7c0.2-4.7-0.3-9.2-1.7-13.7c4.4,3.6,10.3,4.8,15.1,7.8
		c9,5.7,12.8,16.7,17.8,26.2c1.3,2.6,2.8,5.1,5.2,6.7C637,256,619.3,230.3,592.7,217.9z"/>
</g>
<path fill="#17252A" d="M531.6,214L531.6,214c-2.4,0.9-4.9,1.9-7.2,3.1c-27.4,13.4-44.7,41.2-44.7,71.7c0,0.7,0,1.3,0,1.9
	c2.4-0.1,4.9-0.7,7.2-1.7c19.4-9.1,31.1-36.9,35.7-56.2C524.1,225.8,525.7,217.9,531.6,214z"/>
<path fill="#17252A" d="M592.7,216.2c-6.3-2.9-13-5-19.9-6.1c5.7,1.3,10.7,4.4,14.2,9c1.8,2.4,3.2,5,4.3,7.8
	c-21.5-9.4-46.1-8.9-67.2,1.4c5,11,20.5,17,30.9,21c11.3,4.3,22.9,8.4,34.4,12l-10.2-8.3l23.2,3.7c0.2-4.7-0.3-9.2-1.7-13.7
	c4.4,3.6,10.3,4.8,15.1,7.8c9,5.7,12.8,16.7,17.8,26.2c1.3,2.6,2.8,5.1,5.2,6.7C637,254.2,619.3,228.4,592.7,216.2z"/>
<path opacity="0.1" enable-background="new    " d="M470.5,275.6c0,0,82.1-102.1,177.2,0l-8.2-22.9c0,0-44.6-65.2-76.3-51.1
	c-31.6,14.1-62.7,24.1-62.7,24.1L470.5,275.6z"/>
<path fill="#0069FF" d="M470.5,273.8c0,0,82.1-102.1,177.2,0l-8.2-22.9c0,0-44.6-65.2-76.3-51.1c-31.6,14.1-62.7,24.1-62.7,24.1
	L470.5,273.8z"/>
<path opacity="0.1" enable-background="new    " d="M403,493.8c0,0-17.6,47,7,89.1c24.6,42.2-21.6,59.8-21.6,59.8"/>
<path opacity="0.1" enable-background="new    " d="M688.2,451.5c0,0,30.5,38.7,10.5,73.4c-20,34.6-18.8,117.9-18.8,117.9"/>
<path fill="#535461" d="M376.1,677.4h339.1c15.5,0,28.2,12.7,28.2,28.2l0,0l0,0H348l0,0l0,0C348,690,360.5,677.4,376.1,677.4z"/>
<path fill="#535461" d="M410.6,483.8h270.1c23.9,0,43.3,19.4,43.3,43.3v156.7l0,0H367.3l0,0V527.1
	C367.3,503.2,386.7,483.8,410.6,483.8z"/>
<circle fill="#FFFFFF" cx="545.3" cy="592.6" r="21.1"/>
<path opacity="0.1" fill="none" stroke="#000000" stroke-miterlimit="10" enable-background="new    " d="M475.2,227.7
	c0,0,80.7-80.7,167.7-1.4"/>
<rect x="655.3" y="222.6" fill="#6A5C99" width="8.1" height="46"/>
<path fill="#17252A" d="M644.5,252.4L644.5,252.4c15.4,0,28,12.5,28,28v1.8c0,15.4-12.5,28-28,28l0,0l0,0V252.4L644.5,252.4z"/>
<path fill="#6A5C99" d="M645.4,249.6L645.4,249.6c3.4,0,6.3,2.8,6.3,6.3v50.5c0,3.4-2.8,6.3-6.3,6.3l0,0c-3.4,0-6.3-2.8-6.3-6.3
	v-50.5C639.1,252.5,641.9,249.6,645.4,249.6z"/>
<rect x="454" y="223.5" fill="#6A5C99" width="8.1" height="46"/>
<path fill="#17252A" d="M473,310.9L473,310.9c-15.4,0-28-12.5-28-28v-1.8c0-15.4,12.5-28,28-28l0,0l0,0V310.9L473,310.9z"/>
<path fill="#6A5C99" d="M472.1,313.5L472.1,313.5c-3.4,0-6.3-2.8-6.3-6.3v-50.5c0-3.4,2.8-6.3,6.3-6.3l0,0c3.4,0,6.3,2.8,6.3,6.3
	v50.5C478.3,310.7,475.5,313.5,472.1,313.5z"/>
<path fill="#17252A" d="M654.3,173.4c-11-22.9-34.9-50.4-86.5-52.6v-0.1h-0.7l0,0l-18.3,0.9v0.1c-51.2,2.3-75,29.9-85.9,52.6
	c-7.3,15.4-11.2,32.2-11.3,49.3l6.3-0.1l6.3-0.1c0.2-15.2,3.8-30.1,10.2-43.8c14-28.6,39.5-43.8,76-45.2l0,0l16.1-0.9l0,0
	c36.5,1.4,62.2,16.5,76,45.2c6.4,13.8,10,28.7,10.3,43.8l6.3,0.1l6.3,0.1C665.4,205.7,661.7,188.9,654.3,173.4z"/>
<rect x="82.5" y="705.9" fill="#D6D6E3" width="859.9" height="230.9"/>
<rect x="82.5" y="721.4" opacity="0.1" enable-background="new    " width="859.9" height="30"/>
<rect x="24.8" y="702.6" fill="#D6D6E3" width="975.2" height="30"/>
<g>
	<path fill="#0069FF" d="M545.3,599.5L545.3,599.5l-1.1-1.9l4.8-8.2l0,0l0.6-1.1l0,0l2.1-3.8l0,0l0,0l0,0h-5.6H531l0,0l0,0
		l14.2,24.5l2.8-4.9l0,0l0,0L545.3,599.5z M541.5,592.8l-2-3.4h4L541.5,592.8z"/>
	<polygon fill="#0069FF" points="559.6,584.6 554,584.6 551.2,589.4 551.2,589.4 546.5,597.2 546.5,597.2 546.5,597.3 549.2,602.3 	
		"/>
</g>
</svg>
