<?xml version="1.0" encoding="utf-8"?>
<!-- Generator: Adobe Illustrator 18.0.0, SVG Export Plug-In . SVG Version: 6.00 Build 0)  -->
<!DOCTYPE svg PUBLIC "-//W3C//DTD SVG 1.1//EN" "http://www.w3.org/Graphics/SVG/1.1/DTD/svg11.dtd">
<svg version="1.1" id="b5da43ee-4db6-4572-93dd-5b4f02b5d8d8"
	 xmlns="http://www.w3.org/2000/svg" xmlns:xlink="http://www.w3.org/1999/xlink" x="0px" y="0px" viewBox="0 0 875.3 670"
	 enable-background="new 0 0 875.3 670" xml:space="preserve">
<title>business analytics</title>
<path fill="#F2F2F2" d="M865.4,334.5c24,138,9.4,273.8-101.1,320s-244.4-22-299-152.4s53.2-199.7,101.1-320
	C663.6-62.2,790.7-94.1,865.4,334.5z"/>
<circle fill="#2F2E41" cx="773.8" cy="561" r="6.5"/>
<line fill="none" stroke="#3F3D56" stroke-width="2" stroke-miterlimit="10" x1="805.8" y1="669.4" x2="805.8" y2="595"/>
<circle fill="#3F3D56" cx="805.8" cy="595" r="10.5"/>
<path fill="#3F3D56" d="M805.8,640.9c0,0-1.5-32.3-32.3-28.6"/>
<line fill="none" stroke="#F2F2F2" stroke-width="2" stroke-miterlimit="10" x1="37" y1="92" x2="339" y2="92"/>
<line fill="none" stroke="#F2F2F2" stroke-width="2" stroke-miterlimit="10" x1="37" y1="185" x2="339" y2="185"/>
<line fill="none" stroke="#F2F2F2" stroke-width="2" stroke-miterlimit="10" x1="37" y1="259" x2="339" y2="259"/>
<line fill="#0069FF" stroke="#3F3D56" stroke-width="2" stroke-miterlimit="10" x1="57.5" y1="349.5" x2="322.5" y2="349.5"/>
<circle fill="none" stroke="#3F3D56" stroke-width="2" stroke-miterlimit="10" cx="42" cy="349" r="16"/>
<line fill="#0069FF" stroke="#3F3D56" stroke-width="2" stroke-miterlimit="10" x1="122.6" y1="349" x2="122.6" y2="259"/>
<line fill="none" stroke="#3F3D56" stroke-width="2" stroke-miterlimit="10" x1="189.6" y1="349" x2="189.6" y2="185"/>
<line fill="#0069FF" stroke="#3F3D56" stroke-width="2" stroke-miterlimit="10" x1="257.6" y1="349" x2="257.6" y2="92"/>
<circle fill="#2F2E41" cx="122.5" cy="349" r="14.6"/>
<circle fill="#2F2E41" cx="190" cy="349" r="14.6"/>
<circle fill="#2F2E41" cx="257.5" cy="349" r="14.6"/>
<circle fill="none" stroke="#3F3D56" stroke-width="2" stroke-miterlimit="10" cx="339" cy="349" r="16"/>
<circle fill="#3F3D56" cx="123" cy="259" r="36"/>
<circle fill="#3F3D56" cx="190" cy="185" r="36"/>
<circle fill="#3F3D56" cx="258" cy="92" r="36"/>
<circle fill="#D0CDE1" cx="258" cy="92" r="14"/>
<circle fill="#D0CDE1" cx="190" cy="185" r="14"/>
<circle fill="#D0CDE1" cx="123" cy="259" r="14"/>
<circle fill="#F2F2F2" cx="13" cy="92" r="13"/>
<circle fill="#F2F2F2" cx="13" cy="184" r="13"/>
<circle fill="#F2F2F2" cx="13" cy="259" r="13"/>
<rect x="13" y="0" fill="#F2F2F2" width="70" height="6.5"/>
<rect x="13" y="14.7" fill="#F2F2F2" width="70" height="6.5"/>
<rect x="13" y="29.5" fill="#F2F2F2" width="70" height="6.5"/>
<path fill="#FFB9B9" d="M637.6,100c0,0,18.9,24.2,16.5,41.4s39-23.6,39-23.6s-14.2-29.5-6.5-43.7S637.6,100,637.6,100z"/>
<path fill="#2F2E41" d="M703.7,590.3c0,0,24.8,27.2,20.7,33.1s-76.8,28.4-85.1,27.2s-12.4-7.1-9.5-8.9s21.9-11.8,21.9-11.8
	l15.9-18.3c0,0,11.8-6.5,11.8-10S703.7,590.3,703.7,590.3z"/>
<path fill="#FFB9B9" d="M661.8,620.5c0,0-9.5,15.4-11.2,15.9s8.9,21.9,8.9,21.9l24.8-7.7l13.6-11.2l-3-15.4L661.8,620.5z"/>
<path fill="#D0CDE1" d="M636.4,327.5L624.6,380c0,0-40.8,91.6-12.4,107.5l62,118.7l33.1-14.8l-55.5-121.7l25.4-140L636.4,327.5z"/>
<path opacity="0.1" enable-background="new    " d="M636.4,327.5L624.6,380c0,0-40.8,91.6-12.4,107.5l62,118.7l33.1-14.8
	l-55.5-121.7l25.4-140L636.4,327.5z"/>
<path fill="#D0CDE1" d="M640.5,335.7h-6c-0.5,18.2,0.5,36.3,3,54.3c4.1,30.1,14.8,99.2,14.8,99.2s-1.2,13,2.4,17.1s4.1-1.2,4.7,8.3
	s6.2,75.2,6.2,75.2s3.8,13.4-0.3,16.4s-12.4,18.9-6.5,21.3s46.7,5.3,48.4,3.5s0-112.8,0-112.8s-1.2-22.4-2.4-23.6
	s-6.5-17.1-4.7-20.7s0.6-14.2,0.6-15.9s-5.3,0-0.6-7.7s5.3-69.1,5.3-69.1s25.4-39,17.7-49L640.5,335.7z"/>
<circle fill="#FFB9B9" cx="654.1" cy="69.9" r="39"/>
<path fill="#2F2E41" d="M693.1,111.3c0,0-23.6,5.9-33.1,20.1l-8.3,1.8v8.3c0,0-15.4,49-11.8,70.3s0,62.6-5.9,73.8
	s-7.7,13.6-4.7,18.3s7.1,20.7,4.1,27.8s0,14.2,27.2,15.9s65.6,1.8,65.6-7.7s-2.4-36,0-43.1s3.5-11.8,2.4-18.3s2.4-79.2,2.4-79.2
	S731.5,126.6,693.1,111.3z"/>
<path fill="#FFB9B9" d="M637.6,293.8l-32.5,48.4c0,0-34.3,31.3-21.9,45.5c12.4,14.2,44.9-41.4,44.9-41.4l35.4-40.2L637.6,293.8z"/>
<path fill="#2F2E41" d="M658.2,639.4c0,0-1.2-7.7-5.3-7.7S621,650.6,621,650.6S582.9,667,599,668c16,1,100.6,3.3,101.2,0.3
	s1.8-32.1-2.4-32s-37.2,6.6-37.2,6.6L658.2,639.4z"/>
<path fill="#2F2E41" d="M656.9,49.8c-1.4,0.7-2.9,1-4.5,1c-1.6,0.1-3.5,0-4.3-1.4c-0.4-0.9-0.6-1.9-0.5-2.8c-0.7-5.1-5.4-8.7-10.5-8
	c-0.1,0-0.3,0-0.4,0.1c0.2,2,0.8,3.8,1.7,5.5c-3.5,1.2-7.4,0.7-10.4-1.4l-0.6,8c-2.1,1-4.8,1.2-6.7-0.2s-2-4.9,0.1-5.9
	c-2.6-0.5-5.7-1.7-5.9-4.3c-0.2-2.4,2.4-4.2,2.8-6.5c0.4-1.9-0.7-4,0.1-5.8c1-2.4,4.5-3,5.3-5.5c0.4-1.3-0.2-2.6,0-3.9
	c0.3-3.4,4.6-4.8,8.1-4.6s7.2,1.1,10.1-0.7c1.4-0.9,2.4-2.3,3.6-3.4c3.5-3,8.6-3.5,12.6-1.1c1.4,0.9,2.6,2,4.1,2.6
	c3.2,1.1,6.4-1,9.7-1.4c2.4-0.4,4.9,0.3,6.8,2c1.8,1.7,2.2,4.5,1,6.7c1.9-0.3,4-0.6,5.8,0.1s3.2,2.9,2.4,4.7c-0.3,0.5-0.6,1-0.7,1.5
	c-0.2,1,0.8,1.9,1.8,2.2s2.1,0.2,3.1,0.6c4,1.5,3.1,8,6.3,10.9c1.1,0.8,2.2,1.5,3.5,2.1c3.3,2.3,4.5,6.5,3,10.2
	c-0.6,1.4-1.7,2.8-1.6,4.3c0.2,2.2,2.5,3.4,4.1,4.8c3.1,2.8,4,7.3,2.2,11.1c-1.5,3.1-4.7,5.5-5.1,9c-0.1,1.5,0.3,3,0.3,4.5
	c-0.2,2.8-1.7,5.4-4,7c-2.3,1.6-4.9,2.7-7.7,3.2c-1.3,0.3-2.8,0.8-3.1,2.1c-0.4,1.5,1.3,2.9,1.2,4.5c-0.1,0.7-0.5,1.3-1,1.7
	c-2.3,1.8-6,0.3-7.4-2.3s-1.2-5.7-1-8.6l0.8-10.6c0.2-3.3,0.2-7.2-2.5-9.1c-3-2.1-7.3-0.4-10.7-1.8c-3.5-1.5-4.8-5.9-4.6-9.7
	s1.2-7.6,0.6-11.4c-0.8-4.7-4.9-7.8-9.1-4.8C659.1,43.8,659.8,48.1,656.9,49.8z"/>
<path opacity="0.1" enable-background="new    " d="M689.5,139.6c0,0-23.6,9.5-23.6,29.5s1.2,46.7-3,55.5s-7.7,11.8-5.3,18.9
	s6.5,5.9,0,11.2s-5.9-3.5-6.5,5.3s5.9,10,0,14.2s-21.3,20.7-14.8,26s23.6,22.4,29.5,15.9s8.9-23,17.1-21.9s9.5,1.8,8.3-4.1
	s-6.5-5.9,0.6-7.7s10,2.4,7.7-3.5s-4.1-8.3,0.6-14.8s7.1-8.3,6.5-14.8s13-65,13-65S723.8,134.9,689.5,139.6z"/>
<path opacity="0.1" enable-background="new    " d="M683,138.4c0,0-23.6,9.5-23.6,29.5s1.2,46.7-3,55.5s-7.7,11.8-5.3,18.9
	s6.5,5.9,0,11.2s-5.9-3.5-6.5,5.3s5.9,10,0,14.2s-21.3,20.7-14.8,26s23.6,22.4,29.5,15.9s8.9-23,17.1-21.9s9.5,1.8,8.3-4.1
	s-6.5-5.9,0.6-7.7s10,2.4,7.7-3.5s-4.1-8.3,0.6-14.8s7.1-8.3,6.5-14.8s13-65,13-65S717.3,133.7,683,138.4z"/>
<path fill="#2F2E41" d="M686,136.7c0,0-23.6,9.5-23.6,29.5s1.2,46.7-3,55.5s-7.7,11.8-5.3,18.9s6.5,5.9,0,11.2s-5.9-3.5-6.5,5.3
	s5.9,10,0,14.2s-21.3,20.7-14.8,26s23.6,22.4,29.5,15.9s8.9-23,17.1-21.9s9.5,1.8,8.3-4.1s-6.5-5.9,0.6-7.7s10,2.4,7.7-3.5
	s-4.1-8.3,0.6-14.8s7.1-8.3,6.5-14.8s13-65,13-65S720.3,131.9,686,136.7z"/>
<line fill="none" stroke="#3F3D56" stroke-width="2" stroke-miterlimit="10" x1="816" y1="669" x2="276" y2="669"/>
<rect x="297" y="478" fill="#F2F2F2" width="70" height="6.5"/>
<rect x="297" y="492.7" fill="#F2F2F2" width="70" height="6.5"/>
<rect x="297" y="507.5" fill="#F2F2F2" width="70" height="6.5"/>
<path fill="#2F2E41" d="M406.8,477.5v95.7L324,621c26.5,45.6,84.9,61.1,130.5,34.6c45.6-26.5,61.1-84.9,34.6-130.5
	C472,495.7,440.7,477.6,406.8,477.5L406.8,477.5z"/>
<circle fill="#F2F2F2" cx="406.5" cy="573" r="36.3"/>
</svg>
