<?xml version="1.0" encoding="utf-8"?>
<!-- Generator: Adobe Illustrator 18.0.0, SVG Export Plug-In . SVG Version: 6.00 Build 0)  -->
<!DOCTYPE svg PUBLIC "-//W3C//DTD SVG 1.1//EN" "http://www.w3.org/Graphics/SVG/1.1/DTD/svg11.dtd">
<svg version="1.1" id="Layer_1" xmlns="http://www.w3.org/2000/svg" xmlns:xlink="http://www.w3.org/1999/xlink" x="0px" y="0px"
	 viewBox="0 0 100.6 86.9" enable-background="new 0 0 100.6 86.9" xml:space="preserve">
<g>
	<path fill="#FFFFFF" d="M50.3,52.5L50.3,52.5l-4-6.6L63.3,17h0l2.1-3.8l0.1,0L73.1,0h0h0h0H53.5H0h0h0l50.3,86.9l9.8-17.2l0-0.1
		l0,0L50.3,52.5z M36.5,29.1l-7-12.1h14L36.5,29.1z"/>
	<polygon fill="#FFFFFF" points="100.6,0 81,0 71.1,17 71.2,17 54.2,45 54.3,45 54.2,45.4 64.1,62.9 100.6,0 100.6,0 	"/>
</g>
</svg>
