<svg xmlns="http://www.w3.org/2000/svg" width="1771" height="2500" viewBox="221.807 89.47 440 621.061"><filter id="A" width="150%" height="150%" x="-5%" y="-5%"><feFlood flood-color="#000" flood-opacity=".5"/><feComposite in2="SourceAlpha" operator="in"/><feGaussianBlur stdDeviation="8"/><feComposite in2="SourceGraphic" operator="out" result="D"/><feMerge><feMergeNode in="D"/><feMergeNode in="SourceGraphic"/></feMerge></filter><g filter="url(#A)"><path fill="#e44d26" d="M261.85 660.647l-40.042-449.125h440L621.72 660.576 441.537 710.53z"/><path fill="#f16529" d="M441.807 672.348l145.596-40.367 34.258-383.735H441.807z"/><path fill="#ebebeb" d="M441.807 414.82H368.92l-5.035-56.406h77.923V303.33H303.683l14.858 166.572h123.266zm0 143.056l-.242.066-61.346-16.566-3.922-43.93h-55.294l7.718 86.49 112.834 31.323.252-.07z"/><path d="M262.745 89.47h27.992v27.656h25.606V89.47h27.993v83.75h-27.993v-28.044h-25.606v28.044h-28l-.002-83.75zm118.404 27.774h-24.642V89.47H433.8v27.774h-24.654v55.976H381.15v-55.976zm64.916-27.774h29.2l17.955 29.428 17.938-29.428h29.2v83.75h-27.882v-41.512l-19.26 29.778h-.48l-19.272-29.778v41.512h-27.4V89.47zm108.212 0h28v56.068h39.368v27.682h-67.368V89.47z"/><path fill="#fff" d="M441.617 414.82v55.082h67.83l-6.395 71.44-61.435 16.58v57.307l112.924-31.294 15.116-169.115h-14.842zm0-111.5v55.084H574.67l4.93-55.084z"/></g></svg>