<svg xmlns="http://www.w3.org/2000/svg" width="2500" height="2438" viewBox="0 130.746 595.279 580.398"><radialGradient id="A" cx="-183.69" cy="328.972" r=".76" gradientTransform="matrix(545.6736 0 0 528.3113 100439.305 -173525.125)" gradientUnits="userSpaceOnUse"><stop offset="0" stop-color="#34364e" stop-opacity=".98"/><stop offset="1" stop-color="#0c0824"/></radialGradient><path d="M24.803 155.55h545.674V686.34H24.803V155.55z" fill="url(#A)"/><path d="M24.803 155.55h545.674V686.34H24.803V155.55zM0 711.145h595.28v-580.4H0v580.4zm401.318-342.287c-19.595 0-26.29 9.92-26.29 18.106 0 8.93 4.464 15.13 30.756 28.772 38.94 18.85 51.095 36.957 51.095 63.497 0 39.685-30.26 61.016-71.186 61.016-21.58 0-40.182-4.465-50.847-10.665-1.736-.744-1.984-1.984-1.984-3.97v-36.46c0-2.48 1.24-3.225 2.977-1.984 15.626 10.17 33.484 14.634 49.854 14.634 19.595 0 27.78-8.185 27.78-19.347 0-8.93-5.705-16.866-30.757-29.764-35.22-16.866-49.854-33.98-49.854-62.504 0-31.997 25.052-58.536 68.457-58.536 21.33 0 36.213 3.225 44.398 6.945 1.984 1.24 2.48 3.224 2.48 4.96v33.98c0 1.984-1.24 3.225-3.72 2.48-10.913-6.943-27.035-11.16-43.157-11.16zm-213.31 29.516c5.705.496 10.17.496 20.09.496 29.02 0 56.304-10.17 56.304-49.606 0-31.5-19.595-47.375-52.583-47.375-9.92 0-19.347.496-23.812.744v95.74zm-44.15-131.706c0-1.736 3.473-2.977 5.456-2.977 15.875-.744 39.438-1.24 63.993-1.24 68.705 0 95.492 37.7 95.492 85.82 0 63-45.638 90.036-101.693 90.036-9.425 0-12.65-.496-19.347-.496v95.245c0 1.984-.744 2.976-2.976 2.976h-37.95c-1.984 0-2.977-.744-2.977-2.976V266.668z" fill="#31c5f0"/></svg>